<?xml version="1.0" encoding="iso-8859-1"?>
<!-- Generator: Adobe Illustrator 13.0.0, SVG Export Plug-In . SVG Version: 6.00 Build 14948)  -->
<!DOCTYPE svg PUBLIC "-//W3C//DTD SVG 1.1//EN" "http://www.w3.org/Graphics/SVG/1.1/DTD/svg11.dtd">
<svg version="1.1" id="Layer_1" xmlns="http://www.w3.org/2000/svg" xmlns:xlink="http://www.w3.org/1999/xlink" x="0px" y="0px"
	 width="100px" height="100px" viewBox="0 0 100 100" enable-background="new 0 0 100 100" xml:space="preserve">
<g>
	<path fill="none" d="M17.217,71.42c-0.181,0-0.335,0.064-0.359,0.142c-0.17,1.013-0.348,2.036-0.529,3.052
		c-0.012,0.078,0.352,0.187,0.856,0.187c0.008,0,0.02,0,0.032,0c0.517,0.004,0.892-0.102,0.869-0.187
		c-0.17-1.016-0.343-2.039-0.525-3.052C17.544,71.484,17.395,71.42,17.217,71.42z"/>
	<path fill="none" d="M20.278,36.83c-2.197-0.65-4.455-1.469-6.497-2.33c-0.009,0.077-0.018,0.137-0.025,0.206
		c-0.065,0.913,0.138,2.479,3.037,2.544C17.924,37.201,19.184,37.057,20.278,36.83z"/>
	<path fill="none" d="M17.217,64.09c0.178,0,0.315-0.145,0.315-0.321c0-0.174-0.137-0.32-0.315-0.32
		c-0.181,0-0.327,0.146-0.327,0.32C16.89,63.945,17.036,64.09,17.217,64.09z"/>
	<path fill="none" d="M84.709,74.613c-0.02,0.078,0.342,0.187,0.848,0.187c0.008,0,0.017,0,0.023,0
		c0.517,0.004,0.9-0.102,0.886-0.187c-0.179-1.016-0.36-2.039-0.529-3.052c-0.024-0.077-0.175-0.142-0.356-0.142
		c-0.177,0-0.327,0.064-0.343,0.142C85.057,72.574,84.882,73.598,84.709,74.613z"/>
	<path fill="none" d="M17.217,69.824c0.375,0,0.674-0.304,0.674-0.682c0-0.379-0.299-0.687-0.674-0.687
		c-0.384,0-0.691,0.308-0.691,0.687C16.526,69.521,16.833,69.824,17.217,69.824z"/>
	<path fill="none" d="M17.217,66.832c0.23,0,0.424-0.194,0.424-0.432c0-0.23-0.194-0.419-0.424-0.419
		c-0.242,0-0.432,0.188-0.432,0.419C16.785,66.638,16.975,66.832,17.217,66.832z"/>
	<path fill="none" d="M63.916,29.722c-0.017-0.014-0.037-0.026-0.055-0.04c-0.362-0.271-0.735-0.532-1.114-0.779
		c-0.081-0.052-0.165-0.098-0.245-0.149c-0.322-0.203-0.647-0.402-0.979-0.586c-0.16-0.088-0.325-0.167-0.488-0.251
		c-0.262-0.135-0.521-0.274-0.787-0.399c-0.255-0.118-0.514-0.222-0.772-0.33c-0.185-0.077-0.364-0.161-0.552-0.232
		c-0.349-0.134-0.704-0.251-1.061-0.366c-0.103-0.033-0.204-0.073-0.309-0.105c-0.438-0.134-0.882-0.251-1.33-0.355
		c-0.026-0.006-0.053-0.015-0.078-0.02c-1.921-0.44-3.921-0.608-5.947-0.472c-2.854,0.189-5.593,0.965-8.153,2.31
		c-10.03,5.258-13.916,17.687-8.658,27.725c0.268,0.508,0.557,1.001,0.862,1.479c0.052,0.081,0.107,0.157,0.16,0.237
		c0.265,0.402,0.541,0.796,0.83,1.176c0.056,0.072,0.113,0.144,0.17,0.216c0.309,0.393,0.628,0.774,0.962,1.143
		c0.037,0.039,0.074,0.082,0.111,0.123c0.378,0.407,0.77,0.801,1.177,1.177h-0.002c4.076,3.757,9.58,5.794,15.302,5.411
		c2.855-0.188,5.602-0.965,8.152-2.306c4.862-2.55,8.437-6.829,10.07-12.07c1.638-5.238,1.136-10.798-1.412-15.656
		c-0.047-0.088-0.101-0.17-0.148-0.259c0,0.001,0,0.001,0,0.001C68.189,33.703,66.23,31.463,63.916,29.722z M62.696,53.956v0.015
		c-0.043,0.037-0.095,0.069-0.145,0.115c-0.098,0.072-0.197,0.148-0.306,0.225c-0.008,0.006-0.018,0.012-0.024,0.017
		c-0.315,0.24-0.638,0.47-0.973,0.69c-0.008,0.005-0.012,0.009-0.018,0.012c-0.157,0.105-0.312,0.205-0.477,0.303
		c-0.005,0.003-0.012,0.007-0.017,0.011c-0.276,0.167-0.558,0.328-0.845,0.484c-0.062,0.033-0.12,0.068-0.181,0.104
		c-0.148,0.076-0.295,0.161-0.448,0.233c-0.01,0.005-0.021,0.01-0.032,0.015c-0.488,0.24-0.988,0.464-1.505,0.667
		c-0.005,0.002-0.009,0.003-0.012,0.005c-0.026,0.011-0.057,0.019-0.083,0.028c-0.501,0.193-1.016,0.365-1.541,0.522
		c-0.02,0.006-0.037,0.013-0.057,0.019c-0.187,0.053-0.388,0.109-0.59,0.158c-0.004,0.001-0.007,0.002-0.01,0.003
		c-0.359,0.094-0.723,0.178-1.094,0.255c-0.047,0.01-0.093,0.022-0.141,0.032c-0.195,0.041-0.371,0.077-0.565,0.105
		c-0.001,0-0.004,0-0.007,0c-0.604,0.104-1.216,0.189-1.842,0.241c-0.631,0.054-1.252,0.07-1.871,0.069
		c-0.178,0.003-0.365,0-0.549-0.005c-0.03-0.001-0.061-0.003-0.091-0.004c-0.319-0.011-0.638-0.03-0.952-0.054
		c-0.081-0.006-0.161-0.008-0.241-0.015c-0.069-0.009-0.133-0.015-0.201-0.021c-0.658-0.064-1.302-0.157-1.936-0.28
		c-0.064-0.009-0.131-0.016-0.194-0.029c-0.128-0.028-0.25-0.066-0.378-0.097c-0.334-0.075-0.664-0.157-0.987-0.249
		c-0.096-0.027-0.195-0.046-0.29-0.073c-0.098-0.028-0.19-0.061-0.285-0.095c-0.369-0.114-0.728-0.244-1.083-0.379
		c-0.081-0.031-0.167-0.056-0.247-0.089c-0.015-0.006-0.029-0.013-0.044-0.019c-0.076-0.03-0.148-0.064-0.224-0.096
		c-0.061-0.025-0.125-0.055-0.184-0.079c-0.043-0.019-0.086-0.042-0.129-0.062c-0.226-0.099-0.457-0.194-0.675-0.302
		c3.178,1.797,7.192,2.725,11.478,2.362c3.823-0.323,7.256-1.624,9.961-3.538c-0.385,3.886-3.488,7.044-7.526,7.431
		c-10.997,1.065-16.922-7.831-17.363-8.52c0,0-0.001,0-0.001-0.001c-0.015-0.024-0.041-0.064-0.041-0.064
		c5.243,2.415,9.903-7.296,16.02-7.898c0.262-0.023,0.529-0.041,0.791-0.041c0.14,0,0.272,0.033,0.413,0.041
		c0.245,0.013,0.486,0.036,0.727,0.07c0.271,0.039,0.535,0.09,0.795,0.156c0.229,0.057,0.448,0.123,0.668,0.199
		c0.259,0.09,0.51,0.19,0.757,0.305c0.204,0.095,0.401,0.196,0.597,0.307c0.24,0.137,0.473,0.284,0.698,0.445
		c0.179,0.126,0.35,0.26,0.518,0.4c0.215,0.181,0.419,0.37,0.616,0.571c0.152,0.154,0.293,0.313,0.432,0.479
		c0.184,0.22,0.354,0.446,0.516,0.686c0.118,0.177,0.229,0.358,0.335,0.546c0.143,0.254,0.274,0.513,0.391,0.783
		c0.085,0.196,0.161,0.396,0.232,0.603c0.097,0.282,0.18,0.566,0.245,0.861c0.025,0.105,0.069,0.203,0.09,0.309
		c2.943-2.729,4.616-6.299,4.292-10.074c-0.076-0.848-0.266-1.66-0.524-2.451c1.481,3.836,0.9,8.096-1.377,11.411
		C64.305,52.522,63.536,53.269,62.696,53.956z M44.397,30.321c8.391-3.711,18.195,0.084,21.901,8.472
		c0.098,0.221,0.188,0.444,0.275,0.662C62.649,31.552,53.15,28.06,44.995,31.67c-8.161,3.609-11.968,12.99-8.755,21.215
		c-0.109-0.219-0.214-0.437-0.315-0.662C32.218,43.836,36.011,34.028,44.397,30.321z"/>
	<path fill="none" d="M84.897,69.143c0,0.378,0.309,0.682,0.683,0.682c0.38,0,0.687-0.304,0.687-0.682
		c0-0.379-0.307-0.687-0.687-0.687C85.206,68.456,84.897,68.764,84.897,69.143z"/>
	<path fill="none" d="M85.58,66.832c0.238,0,0.432-0.194,0.432-0.432c0-0.23-0.193-0.419-0.432-0.419
		c-0.229,0-0.424,0.188-0.424,0.419C85.156,66.638,85.352,66.832,85.58,66.832z"/>
	<path fill="none" d="M85.58,64.09c0.182,0,0.328-0.145,0.328-0.321c0-0.174-0.146-0.32-0.328-0.32c-0.177,0-0.318,0.146-0.318,0.32
		C85.262,63.945,85.403,64.09,85.58,64.09z"/>
	
		<linearGradient id="SVGID_1_" gradientUnits="userSpaceOnUse" x1="-431.3618" y1="473.4072" x2="-427.2599" y2="473.4072" gradientTransform="matrix(3.2832 4.0409 4.0409 -3.2832 -457.8495 3360.3948)">
		<stop  offset="0" style="stop-color:#9DC44E"/>
		<stop  offset="1" style="stop-color:#C4D54B"/>
	</linearGradient>
	<path fill="url(#SVGID_1_)" d="M36.484,60.044c-0.038-0.041-0.075-0.084-0.111-0.123C36.41,59.96,36.447,60.003,36.484,60.044z"/>
	
		<linearGradient id="SVGID_2_" gradientUnits="userSpaceOnUse" x1="-431.3345" y1="473.4023" x2="-427.1186" y2="473.4023" gradientTransform="matrix(3.2832 4.0409 4.0409 -3.2832 -457.8495 3360.3948)">
		<stop  offset="0" style="stop-color:#9DC44E"/>
		<stop  offset="1" style="stop-color:#C4D54B"/>
	</linearGradient>
	<path fill="url(#SVGID_2_)" d="M35.411,58.778c-0.057-0.072-0.114-0.144-0.17-0.216C35.297,58.635,35.354,58.706,35.411,58.778z"/>
	
		<linearGradient id="SVGID_3_" gradientUnits="userSpaceOnUse" x1="-431.3613" y1="480.5352" x2="-427.233" y2="480.5352" gradientTransform="matrix(3.2832 4.0409 4.0409 -3.2832 -457.8495 3360.3948)">
		<stop  offset="0" style="stop-color:#9DC44E"/>
		<stop  offset="1" style="stop-color:#C4D54B"/>
	</linearGradient>
	<path fill="url(#SVGID_3_)" d="M56.225,26.129c0.448,0.104,0.893,0.222,1.33,0.355C57.117,26.35,56.673,26.233,56.225,26.129z"/>
	
		<linearGradient id="SVGID_4_" gradientUnits="userSpaceOnUse" x1="-431.3574" y1="482.4131" x2="-427.2259" y2="482.4131" gradientTransform="matrix(3.2832 4.0409 4.0409 -3.2832 -457.8495 3360.3948)">
		<stop  offset="0" style="stop-color:#9DC44E"/>
		<stop  offset="1" style="stop-color:#C4D54B"/>
	</linearGradient>
	<path fill="url(#SVGID_4_)" d="M67.433,24.174c0.604,0.435,1.19,0.896,1.76,1.383C68.623,25.07,68.036,24.608,67.433,24.174z"/>
	
		<linearGradient id="SVGID_5_" gradientUnits="userSpaceOnUse" x1="-431.355" y1="482.5049" x2="-427.219" y2="482.5049" gradientTransform="matrix(3.2832 4.0409 4.0409 -3.2832 -457.8495 3360.3948)">
		<stop  offset="0" style="stop-color:#9DC44E"/>
		<stop  offset="1" style="stop-color:#C4D54B"/>
	</linearGradient>
	<path fill="url(#SVGID_5_)" d="M69.545,25.858c0.631,0.557,1.237,1.146,1.816,1.765C70.78,27.002,70.176,26.415,69.545,25.858z"/>
	
		<linearGradient id="SVGID_6_" gradientUnits="userSpaceOnUse" x1="-431.3569" y1="473.4238" x2="-427.225" y2="473.4238" gradientTransform="matrix(3.2832 4.0409 4.0409 -3.2832 -457.8495 3360.3948)">
		<stop  offset="0" style="stop-color:#9DC44E"/>
		<stop  offset="1" style="stop-color:#C4D54B"/>
	</linearGradient>
	<path fill="url(#SVGID_6_)" d="M34.411,57.387c-0.053-0.08-0.108-0.156-0.16-0.237C34.303,57.229,34.358,57.307,34.411,57.387z"/>
	
		<linearGradient id="SVGID_7_" gradientUnits="userSpaceOnUse" x1="-431.354" y1="481.0859" x2="-427.2155" y2="481.0859" gradientTransform="matrix(3.2832 4.0409 4.0409 -3.2832 -457.8495 3360.3948)">
		<stop  offset="0" style="stop-color:#9DC44E"/>
		<stop  offset="1" style="stop-color:#C4D54B"/>
	</linearGradient>
	<path fill="url(#SVGID_7_)" d="M62.502,28.754c0.08,0.051,0.164,0.097,0.245,0.149C62.666,28.851,62.582,28.805,62.502,28.754z"/>
	
		<linearGradient id="SVGID_8_" gradientUnits="userSpaceOnUse" x1="-431.2056" y1="481.168" x2="-426.7521" y2="481.168" gradientTransform="matrix(3.2832 4.0409 4.0409 -3.2832 -457.8495 3360.3948)">
		<stop  offset="0" style="stop-color:#9DC44E"/>
		<stop  offset="1" style="stop-color:#C4D54B"/>
	</linearGradient>
	<path fill="url(#SVGID_8_)" d="M63.861,29.682c0.018,0.014,0.038,0.026,0.055,0.04C63.899,29.708,63.879,29.695,63.861,29.682z"/>
	
		<linearGradient id="SVGID_9_" gradientUnits="userSpaceOnUse" x1="-431.356" y1="480.0342" x2="-427.2213" y2="480.0342" gradientTransform="matrix(3.2832 4.0409 4.0409 -3.2832 -457.8495 3360.3948)">
		<stop  offset="0" style="stop-color:#9DC44E"/>
		<stop  offset="1" style="stop-color:#C4D54B"/>
	</linearGradient>
	<path fill="url(#SVGID_9_)" d="M56.146,26.109c-1.919-0.44-3.918-0.609-5.947-0.472C52.226,25.501,54.226,25.669,56.146,26.109z"/>
	
		<linearGradient id="SVGID_10_" gradientUnits="userSpaceOnUse" x1="-431.3506" y1="480.8516" x2="-427.2073" y2="480.8516" gradientTransform="matrix(3.2832 4.0409 4.0409 -3.2832 -457.8495 3360.3948)">
		<stop  offset="0" style="stop-color:#9DC44E"/>
		<stop  offset="1" style="stop-color:#C4D54B"/>
	</linearGradient>
	<path fill="url(#SVGID_10_)" d="M59.476,27.188c0.259,0.108,0.518,0.212,0.772,0.33C59.993,27.399,59.734,27.296,59.476,27.188z"/>
	
		<linearGradient id="SVGID_11_" gradientUnits="userSpaceOnUse" x1="-431.3809" y1="480.9805" x2="-427.2877" y2="480.9805" gradientTransform="matrix(3.2832 4.0409 4.0409 -3.2832 -457.8495 3360.3948)">
		<stop  offset="0" style="stop-color:#9DC44E"/>
		<stop  offset="1" style="stop-color:#C4D54B"/>
	</linearGradient>
	<path fill="url(#SVGID_11_)" d="M61.035,27.917c0.163,0.084,0.328,0.163,0.488,0.251C61.363,28.08,61.198,28.001,61.035,27.917z"/>
	
		<linearGradient id="SVGID_12_" gradientUnits="userSpaceOnUse" x1="-431.3579" y1="480.7031" x2="-427.2249" y2="480.7031" gradientTransform="matrix(3.2832 4.0409 4.0409 -3.2832 -457.8495 3360.3948)">
		<stop  offset="0" style="stop-color:#9DC44E"/>
		<stop  offset="1" style="stop-color:#C4D54B"/>
	</linearGradient>
	<path fill="url(#SVGID_12_)" d="M57.863,26.589c0.356,0.115,0.712,0.232,1.061,0.366C58.575,26.822,58.22,26.705,57.863,26.589z"/>
	
		<linearGradient id="SVGID_13_" gradientUnits="userSpaceOnUse" x1="-431.3574" y1="482.2715" x2="-427.2253" y2="482.2715" gradientTransform="matrix(3.2832 4.0409 4.0409 -3.2832 -457.8495 3360.3948)">
		<stop  offset="0" style="stop-color:#9DC44E"/>
		<stop  offset="1" style="stop-color:#C4D54B"/>
	</linearGradient>
	<path fill="url(#SVGID_13_)" d="M65.046,22.634c0.71,0.406,1.405,0.84,2.077,1.31C66.451,23.474,65.756,23.04,65.046,22.634z"/>
	
		<linearGradient id="SVGID_14_" gradientUnits="userSpaceOnUse" x1="-431.3511" y1="480.4844" x2="-427.2126" y2="480.4844" gradientTransform="matrix(3.2832 4.0409 4.0409 -3.2832 -457.8495 3360.3948)">
		<stop  offset="0" style="stop-color:#9DC44E"/>
		<stop  offset="1" style="stop-color:#C4D54B"/>
	</linearGradient>
	<path fill="url(#SVGID_14_)" d="M51.56,19.039c-0.597,0-1.193,0.016-1.792,0.057c0.6-0.041,1.199-0.057,1.796-0.057
		C51.563,19.039,51.562,19.039,51.56,19.039z"/>
	
		<linearGradient id="SVGID_15_" gradientUnits="userSpaceOnUse" x1="-431.3589" y1="481.5273" x2="-427.227" y2="481.5273" gradientTransform="matrix(3.2832 4.0409 4.0409 -3.2832 -457.8495 3360.3948)">
		<stop  offset="0" style="stop-color:#9DC44E"/>
		<stop  offset="1" style="stop-color:#C4D54B"/>
	</linearGradient>
	<path fill="url(#SVGID_15_)" d="M57.3,19.663c0.722,0.156,1.436,0.347,2.142,0.562C58.734,20.01,58.021,19.819,57.3,19.663z"/>
	
		<linearGradient id="SVGID_16_" gradientUnits="userSpaceOnUse" x1="-431.3555" y1="477.3418" x2="-427.2203" y2="477.3418" gradientTransform="matrix(3.2832 4.0409 4.0409 -3.2832 -457.8495 3360.3948)">
		<stop  offset="0" style="stop-color:#9DC44E"/>
		<stop  offset="1" style="stop-color:#C4D54B"/>
	</linearGradient>
	<path fill="url(#SVGID_16_)" d="M53.397,73.173c3.65-0.243,7.313-1.237,10.761-3.041c13.254-6.949,18.37-23.319,11.416-36.581
		c-1.135-2.166-2.53-4.104-4.115-5.818c-0.282,2.98-0.912,5.863-1.836,8.608c0.048,0.089,0.102,0.171,0.148,0.259
		c2.548,4.858,3.05,10.418,1.412,15.656c-1.634,5.241-5.208,9.521-10.07,12.07c-2.551,1.341-5.297,2.118-8.152,2.306
		c-5.722,0.383-11.226-1.654-15.302-5.411c-3.1,0.164-6.128-0.081-9.035-0.698c-0.367-0.587-0.714-1.192-1.042-1.807
		C32.727,68.521,43.023,73.866,53.397,73.173z"/>
	
		<linearGradient id="SVGID_17_" gradientUnits="userSpaceOnUse" x1="-431.3496" y1="481.8359" x2="-427.2076" y2="481.8359" gradientTransform="matrix(3.2832 4.0409 4.0409 -3.2832 -457.8495 3360.3948)">
		<stop  offset="0" style="stop-color:#9DC44E"/>
		<stop  offset="1" style="stop-color:#C4D54B"/>
	</linearGradient>
	<path fill="url(#SVGID_17_)" d="M60.03,20.407c0.762,0.25,1.517,0.527,2.256,0.844C61.547,20.934,60.794,20.657,60.03,20.407z"/>
	
		<linearGradient id="SVGID_18_" gradientUnits="userSpaceOnUse" x1="-431.3501" y1="481.2148" x2="-427.2091" y2="481.2148" gradientTransform="matrix(3.2832 4.0409 4.0409 -3.2832 -457.8495 3360.3948)">
		<stop  offset="0" style="stop-color:#9DC44E"/>
		<stop  offset="1" style="stop-color:#C4D54B"/>
	</linearGradient>
	<path fill="url(#SVGID_18_)" d="M54.646,19.228c0.804,0.092,1.604,0.209,2.392,0.372C56.25,19.438,55.45,19.32,54.646,19.228z"/>
	
		<linearGradient id="SVGID_19_" gradientUnits="userSpaceOnUse" x1="-431.3589" y1="482.0693" x2="-427.2275" y2="482.0693" gradientTransform="matrix(3.2832 4.0409 4.0409 -3.2832 -457.8495 3360.3948)">
		<stop  offset="0" style="stop-color:#9DC44E"/>
		<stop  offset="1" style="stop-color:#C4D54B"/>
	</linearGradient>
	<path fill="url(#SVGID_19_)" d="M62.614,21.404c0.662,0.293,1.31,0.617,1.946,0.964C63.924,22.021,63.276,21.698,62.614,21.404z"/>
	
		<linearGradient id="SVGID_20_" gradientUnits="userSpaceOnUse" x1="-431.3555" y1="480.7998" x2="-427.2198" y2="480.7998" gradientTransform="matrix(3.2832 4.0409 4.0409 -3.2832 -457.8495 3360.3948)">
		<stop  offset="0" style="stop-color:#9DC44E"/>
		<stop  offset="1" style="stop-color:#C4D54B"/>
	</linearGradient>
	<path fill="url(#SVGID_20_)" d="M51.584,19.04c0.819,0,1.635,0.052,2.446,0.126C53.219,19.091,52.403,19.04,51.584,19.04z"/>
	
		<linearGradient id="SVGID_21_" gradientUnits="userSpaceOnUse" x1="-482.0049" y1="605.8203" x2="-478.408" y2="605.8203" gradientTransform="matrix(-2.4415 -5.3038 -5.3038 2.4415 2097.1997 -3996.3472)">
		<stop  offset="0" style="stop-color:#DDE599"/>
		<stop  offset="0.0123" style="stop-color:#DDE599"/>
		<stop  offset="0.2699" style="stop-color:#C4D54B"/>
		<stop  offset="1" style="stop-color:#9DC44E"/>
	</linearGradient>
	<path fill="url(#SVGID_21_)" d="M51.568,19.039c-0.002,0-0.003,0-0.005,0c0.006,0,0.014,0.001,0.021,0.001
		C51.578,19.04,51.573,19.039,51.568,19.039z"/>
	
		<linearGradient id="SVGID_22_" gradientUnits="userSpaceOnUse" x1="-482.5898" y1="605.0312" x2="-478.4277" y2="605.0312" gradientTransform="matrix(-2.4415 -5.3038 -5.3038 2.4415 2097.1997 -3996.3472)">
		<stop  offset="0" style="stop-color:#DDE599"/>
		<stop  offset="0.0123" style="stop-color:#DDE599"/>
		<stop  offset="0.2699" style="stop-color:#C4D54B"/>
		<stop  offset="1" style="stop-color:#9DC44E"/>
	</linearGradient>
	<path fill="url(#SVGID_22_)" d="M60.248,27.518c0.267,0.125,0.525,0.264,0.787,0.399C60.773,27.782,60.515,27.643,60.248,27.518z"
		/>
	
		<linearGradient id="SVGID_23_" gradientUnits="userSpaceOnUse" x1="-482.5737" y1="604.8711" x2="-478.4398" y2="604.8711" gradientTransform="matrix(-2.4415 -5.3038 -5.3038 2.4415 2097.1997 -3996.3472)">
		<stop  offset="0" style="stop-color:#DDE599"/>
		<stop  offset="0.0123" style="stop-color:#DDE599"/>
		<stop  offset="0.2699" style="stop-color:#C4D54B"/>
		<stop  offset="1" style="stop-color:#9DC44E"/>
	</linearGradient>
	<path fill="url(#SVGID_23_)" d="M61.523,28.168c0.331,0.184,0.656,0.383,0.979,0.586C62.18,28.552,61.854,28.352,61.523,28.168z"/>
	
		<linearGradient id="SVGID_24_" gradientUnits="userSpaceOnUse" x1="-482.5718" y1="611.1465" x2="-478.4247" y2="611.1465" gradientTransform="matrix(-2.4415 -5.3038 -5.3038 2.4415 2097.1997 -3996.3472)">
		<stop  offset="0" style="stop-color:#DDE599"/>
		<stop  offset="0.0123" style="stop-color:#DDE599"/>
		<stop  offset="0.2699" style="stop-color:#C4D54B"/>
		<stop  offset="1" style="stop-color:#9DC44E"/>
	</linearGradient>
	<path fill="url(#SVGID_24_)" d="M35.411,58.778c0.309,0.395,0.628,0.774,0.962,1.143C36.039,59.553,35.72,59.171,35.411,58.778z"/>
	
		<linearGradient id="SVGID_25_" gradientUnits="userSpaceOnUse" x1="-482.5737" y1="604.458" x2="-478.4387" y2="604.458" gradientTransform="matrix(-2.4415 -5.3038 -5.3038 2.4415 2097.1997 -3996.3472)">
		<stop  offset="0" style="stop-color:#DDE599"/>
		<stop  offset="0.0123" style="stop-color:#DDE599"/>
		<stop  offset="0.2699" style="stop-color:#C4D54B"/>
		<stop  offset="1" style="stop-color:#9DC44E"/>
	</linearGradient>
	<path fill="url(#SVGID_25_)" d="M63.916,29.722c2.314,1.741,4.273,3.981,5.707,6.62c0,0,0,0,0-0.001
		C68.193,33.701,66.233,31.461,63.916,29.722z"/>
	
		<linearGradient id="SVGID_26_" gradientUnits="userSpaceOnUse" x1="-482.5752" y1="611.0547" x2="-478.4429" y2="611.0547" gradientTransform="matrix(-2.4415 -5.3038 -5.3038 2.4415 2097.1997 -3996.3472)">
		<stop  offset="0" style="stop-color:#DDE599"/>
		<stop  offset="0.0123" style="stop-color:#DDE599"/>
		<stop  offset="0.2699" style="stop-color:#C4D54B"/>
		<stop  offset="1" style="stop-color:#9DC44E"/>
	</linearGradient>
	<path fill="url(#SVGID_26_)" d="M36.484,60.044c0.377,0.409,0.768,0.801,1.175,1.177h0.002
		C37.254,60.845,36.863,60.451,36.484,60.044z"/>
	
		<linearGradient id="SVGID_27_" gradientUnits="userSpaceOnUse" x1="-482.5737" y1="604.7295" x2="-478.44" y2="604.7295" gradientTransform="matrix(-2.4415 -5.3038 -5.3038 2.4415 2097.1997 -3996.3472)">
		<stop  offset="0" style="stop-color:#DDE599"/>
		<stop  offset="0.0123" style="stop-color:#DDE599"/>
		<stop  offset="0.2699" style="stop-color:#C4D54B"/>
		<stop  offset="1" style="stop-color:#9DC44E"/>
	</linearGradient>
	<path fill="url(#SVGID_27_)" d="M62.747,28.903c0.379,0.247,0.752,0.508,1.114,0.779C63.499,29.411,63.128,29.15,62.747,28.903z"/>
	
		<linearGradient id="SVGID_28_" gradientUnits="userSpaceOnUse" x1="-482.5996" y1="605.209" x2="-478.4234" y2="605.209" gradientTransform="matrix(-2.4415 -5.3038 -5.3038 2.4415 2097.1997 -3996.3472)">
		<stop  offset="0" style="stop-color:#DDE599"/>
		<stop  offset="0.0123" style="stop-color:#DDE599"/>
		<stop  offset="0.2699" style="stop-color:#C4D54B"/>
		<stop  offset="1" style="stop-color:#9DC44E"/>
	</linearGradient>
	<path fill="url(#SVGID_28_)" d="M58.924,26.956c0.188,0.071,0.367,0.155,0.552,0.232C59.291,27.111,59.111,27.027,58.924,26.956z"
		/>
	
		<linearGradient id="SVGID_29_" gradientUnits="userSpaceOnUse" x1="-482.5747" y1="603.7363" x2="-478.4391" y2="603.7363" gradientTransform="matrix(-2.4415 -5.3038 -5.3038 2.4415 2097.1997 -3996.3472)">
		<stop  offset="0" style="stop-color:#DDE599"/>
		<stop  offset="0.0123" style="stop-color:#DDE599"/>
		<stop  offset="0.2699" style="stop-color:#C4D54B"/>
		<stop  offset="1" style="stop-color:#9DC44E"/>
	</linearGradient>
	<path fill="url(#SVGID_29_)" d="M67.123,23.944c0.105,0.074,0.207,0.155,0.31,0.23C67.33,24.099,67.229,24.019,67.123,23.944z"/>
	
		<linearGradient id="SVGID_30_" gradientUnits="userSpaceOnUse" x1="-482.542" y1="603.3516" x2="-478.4903" y2="603.3516" gradientTransform="matrix(-2.4415 -5.3038 -5.3038 2.4415 2097.1997 -3996.3472)">
		<stop  offset="0" style="stop-color:#DDE599"/>
		<stop  offset="0.0123" style="stop-color:#DDE599"/>
		<stop  offset="0.2699" style="stop-color:#C4D54B"/>
		<stop  offset="1" style="stop-color:#9DC44E"/>
	</linearGradient>
	<path fill="url(#SVGID_30_)" d="M71.46,27.72c-0.031-0.035-0.066-0.063-0.099-0.097c0.033,0.036,0.063,0.075,0.098,0.109
		C71.459,27.729,71.46,27.724,71.46,27.72z"/>
	
		<linearGradient id="SVGID_31_" gradientUnits="userSpaceOnUse" x1="-482.5776" y1="604.6416" x2="-478.4383" y2="604.6416" gradientTransform="matrix(-2.4415 -5.3038 -5.3038 2.4415 2097.1997 -3996.3472)">
		<stop  offset="0" style="stop-color:#DDE599"/>
		<stop  offset="0.0123" style="stop-color:#DDE599"/>
		<stop  offset="0.2699" style="stop-color:#C4D54B"/>
		<stop  offset="1" style="stop-color:#9DC44E"/>
	</linearGradient>
	<path fill="url(#SVGID_31_)" d="M59.441,20.224c0.197,0.06,0.395,0.119,0.589,0.183C59.834,20.343,59.639,20.284,59.441,20.224z"/>
	
		<linearGradient id="SVGID_32_" gradientUnits="userSpaceOnUse" x1="-482.5562" y1="603.5293" x2="-478.4573" y2="603.5293" gradientTransform="matrix(-2.4415 -5.3038 -5.3038 2.4415 2097.1997 -3996.3472)">
		<stop  offset="0" style="stop-color:#DDE599"/>
		<stop  offset="0.0123" style="stop-color:#DDE599"/>
		<stop  offset="0.2699" style="stop-color:#C4D54B"/>
		<stop  offset="1" style="stop-color:#9DC44E"/>
	</linearGradient>
	<path fill="url(#SVGID_32_)" d="M69.192,25.557c0.117,0.101,0.237,0.199,0.353,0.301C69.43,25.755,69.31,25.658,69.192,25.557z"/>
	
		<linearGradient id="SVGID_33_" gradientUnits="userSpaceOnUse" x1="-482.6216" y1="604.292" x2="-478.4252" y2="604.292" gradientTransform="matrix(-2.4415 -5.3038 -5.3038 2.4415 2097.1997 -3996.3472)">
		<stop  offset="0" style="stop-color:#DDE599"/>
		<stop  offset="0.0123" style="stop-color:#DDE599"/>
		<stop  offset="0.2699" style="stop-color:#C4D54B"/>
		<stop  offset="1" style="stop-color:#9DC44E"/>
	</linearGradient>
	<path fill="url(#SVGID_33_)" d="M62.286,21.251c0.11,0.048,0.219,0.104,0.328,0.153C62.505,21.354,62.396,21.299,62.286,21.251z"/>
	
		<linearGradient id="SVGID_34_" gradientUnits="userSpaceOnUse" x1="-482.5981" y1="605.4014" x2="-478.4392" y2="605.4014" gradientTransform="matrix(-2.4415 -5.3038 -5.3038 2.4415 2097.1997 -3996.3472)">
		<stop  offset="0" style="stop-color:#DDE599"/>
		<stop  offset="0.0123" style="stop-color:#DDE599"/>
		<stop  offset="0.2699" style="stop-color:#C4D54B"/>
		<stop  offset="1" style="stop-color:#9DC44E"/>
	</linearGradient>
	<path fill="url(#SVGID_34_)" d="M54.03,19.166c0.205,0.019,0.411,0.039,0.616,0.062C54.441,19.205,54.235,19.185,54.03,19.166z"/>
	
		<linearGradient id="SVGID_35_" gradientUnits="userSpaceOnUse" x1="-482.5884" y1="604.0098" x2="-478.4319" y2="604.0098" gradientTransform="matrix(-2.4415 -5.3038 -5.3038 2.4415 2097.1997 -3996.3472)">
		<stop  offset="0" style="stop-color:#DDE599"/>
		<stop  offset="0.0123" style="stop-color:#DDE599"/>
		<stop  offset="0.2699" style="stop-color:#C4D54B"/>
		<stop  offset="1" style="stop-color:#9DC44E"/>
	</linearGradient>
	<path fill="url(#SVGID_35_)" d="M64.561,22.369c0.162,0.088,0.325,0.174,0.485,0.265C64.886,22.542,64.723,22.457,64.561,22.369z"
		/>
	
		<linearGradient id="SVGID_36_" gradientUnits="userSpaceOnUse" x1="-482.5625" y1="605.4023" x2="-478.4443" y2="605.4023" gradientTransform="matrix(-2.4415 -5.3038 -5.3038 2.4415 2097.1997 -3996.3472)">
		<stop  offset="0" style="stop-color:#DDE599"/>
		<stop  offset="0.0123" style="stop-color:#DDE599"/>
		<stop  offset="0.2699" style="stop-color:#C4D54B"/>
		<stop  offset="1" style="stop-color:#9DC44E"/>
	</linearGradient>
	<path fill="url(#SVGID_36_)" d="M57.555,26.484c0.104,0.032,0.206,0.072,0.309,0.105C57.761,26.557,57.659,26.516,57.555,26.484z"
		/>
	
		<linearGradient id="SVGID_37_" gradientUnits="userSpaceOnUse" x1="-482.5742" y1="611.2578" x2="-478.4417" y2="611.2578" gradientTransform="matrix(-2.4415 -5.3038 -5.3038 2.4415 2097.1997 -3996.3472)">
		<stop  offset="0" style="stop-color:#DDE599"/>
		<stop  offset="0.0123" style="stop-color:#DDE599"/>
		<stop  offset="0.2699" style="stop-color:#C4D54B"/>
		<stop  offset="1" style="stop-color:#9DC44E"/>
	</linearGradient>
	<path fill="url(#SVGID_37_)" d="M34.251,57.149c-0.305-0.478-0.595-0.971-0.862-1.479C33.655,56.18,33.946,56.67,34.251,57.149z"/>
	
		<linearGradient id="SVGID_38_" gradientUnits="userSpaceOnUse" x1="-482.5747" y1="611.2139" x2="-478.4449" y2="611.2139" gradientTransform="matrix(-2.4415 -5.3038 -5.3038 2.4415 2097.1997 -3996.3472)">
		<stop  offset="0" style="stop-color:#DDE599"/>
		<stop  offset="0.0123" style="stop-color:#DDE599"/>
		<stop  offset="0.2699" style="stop-color:#C4D54B"/>
		<stop  offset="1" style="stop-color:#9DC44E"/>
	</linearGradient>
	<path fill="url(#SVGID_38_)" d="M35.241,58.562c-0.29-0.38-0.565-0.773-0.83-1.176C34.676,57.79,34.952,58.183,35.241,58.562z"/>
	
		<linearGradient id="SVGID_39_" gradientUnits="userSpaceOnUse" x1="-482.4243" y1="605.6094" x2="-478.5004" y2="605.6094" gradientTransform="matrix(-2.4415 -5.3038 -5.3038 2.4415 2097.1997 -3996.3472)">
		<stop  offset="0" style="stop-color:#DDE599"/>
		<stop  offset="0.0123" style="stop-color:#DDE599"/>
		<stop  offset="0.2699" style="stop-color:#C4D54B"/>
		<stop  offset="1" style="stop-color:#9DC44E"/>
	</linearGradient>
	<path fill="url(#SVGID_39_)" d="M56.146,26.109c0.025,0.005,0.052,0.014,0.078,0.02C56.198,26.123,56.172,26.114,56.146,26.109z"/>
	
		<linearGradient id="SVGID_40_" gradientUnits="userSpaceOnUse" x1="-482.5322" y1="604.9922" x2="-478.4416" y2="604.9922" gradientTransform="matrix(-2.4415 -5.3038 -5.3038 2.4415 2097.1997 -3996.3472)">
		<stop  offset="0" style="stop-color:#DDE599"/>
		<stop  offset="0.0123" style="stop-color:#DDE599"/>
		<stop  offset="0.2699" style="stop-color:#C4D54B"/>
		<stop  offset="1" style="stop-color:#9DC44E"/>
	</linearGradient>
	<path fill="url(#SVGID_40_)" d="M57.038,19.6c0.089,0.019,0.175,0.044,0.262,0.062C57.213,19.644,57.127,19.619,57.038,19.6z"/>
	
		<linearGradient id="SVGID_41_" gradientUnits="userSpaceOnUse" x1="-431.355" y1="477.3574" x2="-427.2192" y2="477.3574" gradientTransform="matrix(3.2832 4.0409 4.0409 -3.2832 -457.8495 3360.3948)">
		<stop  offset="0" style="stop-color:#9DC44E"/>
		<stop  offset="1" style="stop-color:#C4D54B"/>
	</linearGradient>
	<path fill="url(#SVGID_41_)" d="M37.659,61.221c-0.407-0.376-0.798-0.768-1.175-1.177c-0.038-0.041-0.075-0.084-0.111-0.123
		c-0.334-0.368-0.653-0.748-0.962-1.143c-0.057-0.072-0.114-0.144-0.17-0.216c-0.29-0.38-0.565-0.772-0.83-1.176
		c-0.053-0.08-0.108-0.157-0.16-0.237c-0.305-0.479-0.596-0.97-0.862-1.479c-5.258-10.038-1.373-22.467,8.658-27.725
		c2.56-1.345,5.299-2.12,8.153-2.31c2.029-0.137,4.028,0.032,5.947,0.472c0.025,0.005,0.052,0.014,0.078,0.02
		c0.448,0.104,0.893,0.221,1.33,0.355c0.104,0.032,0.206,0.072,0.309,0.105c0.356,0.115,0.712,0.232,1.061,0.366
		c0.188,0.071,0.367,0.155,0.552,0.232c0.259,0.109,0.518,0.212,0.772,0.33c0.267,0.125,0.525,0.264,0.787,0.399
		c0.163,0.084,0.328,0.163,0.488,0.251c0.331,0.184,0.656,0.384,0.979,0.586c0.08,0.051,0.164,0.097,0.245,0.149
		c0.381,0.247,0.752,0.508,1.114,0.779c0.018,0.014,0.038,0.026,0.055,0.04c2.317,1.74,4.277,3.979,5.707,6.619
		c0.924-2.746,1.554-5.628,1.836-8.608c-0.034-0.035-0.064-0.074-0.098-0.109c-0.579-0.62-1.186-1.208-1.816-1.765
		c-0.115-0.103-0.235-0.2-0.353-0.301c-0.569-0.486-1.156-0.948-1.76-1.383c-0.103-0.075-0.204-0.156-0.31-0.23
		c-0.672-0.47-1.367-0.904-2.077-1.31c-0.16-0.091-0.323-0.177-0.485-0.265c-0.637-0.347-1.284-0.671-1.946-0.964
		c-0.109-0.05-0.218-0.105-0.328-0.153c-0.739-0.317-1.494-0.594-2.256-0.844c-0.194-0.064-0.392-0.123-0.589-0.183
		c-0.706-0.214-1.42-0.405-2.142-0.562c-0.087-0.019-0.173-0.044-0.262-0.062c-0.788-0.163-1.588-0.28-2.392-0.372
		c-0.205-0.023-0.411-0.043-0.616-0.062c-0.812-0.074-1.627-0.125-2.446-0.126c-0.007,0-0.015-0.001-0.021-0.001
		c-0.597,0-1.196,0.016-1.796,0.057c-3.654,0.243-7.32,1.236-10.766,3.044C25.75,29.085,20.637,45.456,27.582,58.716
		c0.329,0.614,0.675,1.22,1.042,1.807C31.531,61.14,34.559,61.385,37.659,61.221z"/>
	
		<linearGradient id="SVGID_42_" gradientUnits="userSpaceOnUse" x1="-482.5742" y1="607.875" x2="-478.4392" y2="607.875" gradientTransform="matrix(-2.4415 -5.3038 -5.3038 2.4415 2097.1997 -3996.3472)">
		<stop  offset="0" style="stop-color:#DDE599"/>
		<stop  offset="0.0123" style="stop-color:#DDE599"/>
		<stop  offset="0.2699" style="stop-color:#C4D54B"/>
		<stop  offset="1" style="stop-color:#9DC44E"/>
	</linearGradient>
	<path fill="url(#SVGID_42_)" d="M37.659,61.221c-0.407-0.376-0.798-0.768-1.175-1.177c-0.038-0.041-0.075-0.084-0.111-0.123
		c-0.334-0.368-0.653-0.748-0.962-1.143c-0.057-0.072-0.114-0.144-0.17-0.216c-0.29-0.38-0.565-0.772-0.83-1.176
		c-0.053-0.08-0.108-0.157-0.16-0.237c-0.305-0.479-0.596-0.97-0.862-1.479c-5.258-10.038-1.373-22.467,8.658-27.725
		c2.56-1.345,5.299-2.12,8.153-2.31c2.029-0.137,4.028,0.032,5.947,0.472c0.025,0.005,0.052,0.014,0.078,0.02
		c0.448,0.104,0.893,0.221,1.33,0.355c0.104,0.032,0.206,0.072,0.309,0.105c0.356,0.115,0.712,0.232,1.061,0.366
		c0.188,0.071,0.367,0.155,0.552,0.232c0.259,0.109,0.518,0.212,0.772,0.33c0.267,0.125,0.525,0.264,0.787,0.399
		c0.163,0.084,0.328,0.163,0.488,0.251c0.331,0.184,0.656,0.384,0.979,0.586c0.08,0.051,0.164,0.097,0.245,0.149
		c0.381,0.247,0.752,0.508,1.114,0.779c0.018,0.014,0.038,0.026,0.055,0.04c2.317,1.74,4.277,3.979,5.707,6.619
		c0.924-2.746,1.554-5.628,1.836-8.608c-0.034-0.035-0.064-0.074-0.098-0.109c-0.579-0.62-1.186-1.208-1.816-1.765
		c-0.115-0.103-0.235-0.2-0.353-0.301c-0.569-0.486-1.156-0.948-1.76-1.383c-0.103-0.075-0.204-0.156-0.31-0.23
		c-0.672-0.47-1.367-0.904-2.077-1.31c-0.16-0.091-0.323-0.177-0.485-0.265c-0.637-0.347-1.284-0.671-1.946-0.964
		c-0.109-0.05-0.218-0.105-0.328-0.153c-0.739-0.317-1.494-0.594-2.256-0.844c-0.194-0.064-0.392-0.123-0.589-0.183
		c-0.706-0.214-1.42-0.405-2.142-0.562c-0.087-0.019-0.173-0.044-0.262-0.062c-0.788-0.163-1.588-0.28-2.392-0.372
		c-0.205-0.023-0.411-0.043-0.616-0.062c-0.812-0.074-1.627-0.125-2.446-0.126c-0.007,0-0.015-0.001-0.021-0.001
		c-0.597,0-1.196,0.016-1.796,0.057c-3.654,0.243-7.32,1.236-10.766,3.044C25.75,29.085,20.637,45.456,27.582,58.716
		c0.329,0.614,0.675,1.22,1.042,1.807C31.531,61.14,34.559,61.385,37.659,61.221z"/>
	<path fill="#A0C04C" d="M36.24,52.886c-3.213-8.226,0.594-17.606,8.755-21.215c8.155-3.611,17.654-0.118,21.579,7.785
		c-0.088-0.218-0.178-0.441-0.275-0.662c-3.706-8.388-13.511-12.183-21.901-8.472c-8.387,3.707-12.179,13.515-8.473,21.902
		C36.026,52.449,36.13,52.667,36.24,52.886z"/>
	
		<linearGradient id="SVGID_43_" gradientUnits="userSpaceOnUse" x1="-159.356" y1="696.126" x2="-155.2109" y2="696.126" gradientTransform="matrix(-0.1728 1.1918 -1.1918 -0.1728 859.2302 369.4901)">
		<stop  offset="0" style="stop-color:#9DC44E"/>
		<stop  offset="1" style="stop-color:#C4D54B"/>
	</linearGradient>
	<path fill="url(#SVGID_43_)" d="M58.5,47.146c0.239,0.137,0.473,0.285,0.698,0.445C58.973,47.431,58.74,47.284,58.5,47.146z"/>
	
		<linearGradient id="SVGID_44_" gradientUnits="userSpaceOnUse" x1="-159.4033" y1="695.0527" x2="-155.2789" y2="695.0527" gradientTransform="matrix(-0.1728 1.1918 -1.1918 -0.1728 859.2302 369.4901)">
		<stop  offset="0" style="stop-color:#9DC44E"/>
		<stop  offset="1" style="stop-color:#C4D54B"/>
	</linearGradient>
	<path fill="url(#SVGID_44_)" d="M59.716,47.991c0.214,0.181,0.422,0.37,0.616,0.571C60.135,48.361,59.931,48.172,59.716,47.991z"/>
	
		<linearGradient id="SVGID_45_" gradientUnits="userSpaceOnUse" x1="-159.3477" y1="699.9697" x2="-155.2001" y2="699.9697" gradientTransform="matrix(-0.1728 1.1918 -1.1918 -0.1728 859.2302 369.4901)">
		<stop  offset="0" style="stop-color:#9DC44E"/>
		<stop  offset="1" style="stop-color:#C4D54B"/>
	</linearGradient>
	<path fill="url(#SVGID_45_)" d="M54.544,46.069c-0.262,0-0.529,0.017-0.791,0.041c0.407-0.04,0.807-0.021,1.204,0
		C54.816,46.102,54.684,46.069,54.544,46.069z"/>
	
		<linearGradient id="SVGID_46_" gradientUnits="userSpaceOnUse" x1="-159.3896" y1="697.2959" x2="-155.2586" y2="697.2959" gradientTransform="matrix(-0.1728 1.1918 -1.1918 -0.1728 859.2302 369.4901)">
		<stop  offset="0" style="stop-color:#9DC44E"/>
		<stop  offset="1" style="stop-color:#C4D54B"/>
	</linearGradient>
	<path fill="url(#SVGID_46_)" d="M57.146,46.535c0.259,0.089,0.512,0.19,0.757,0.305C57.656,46.725,57.405,46.625,57.146,46.535z"/>
	
		<linearGradient id="SVGID_47_" gradientUnits="userSpaceOnUse" x1="-159.2217" y1="698.5332" x2="-155.0247" y2="698.5332" gradientTransform="matrix(-0.1728 1.1918 -1.1918 -0.1728 859.2302 369.4901)">
		<stop  offset="0" style="stop-color:#9DC44E"/>
		<stop  offset="1" style="stop-color:#C4D54B"/>
	</linearGradient>
	<path fill="url(#SVGID_47_)" d="M55.684,46.18c0.271,0.039,0.535,0.09,0.795,0.156C56.219,46.27,55.954,46.219,55.684,46.18z"/>
	
		<linearGradient id="SVGID_48_" gradientUnits="userSpaceOnUse" x1="-159.3789" y1="707.7598" x2="-155.2755" y2="707.7598" gradientTransform="matrix(-0.1728 1.1918 -1.1918 -0.1728 859.2302 369.4901)">
		<stop  offset="0" style="stop-color:#9DC44E"/>
		<stop  offset="1" style="stop-color:#C4D54B"/>
	</linearGradient>
	<path fill="url(#SVGID_48_)" d="M42.73,56.983c0.355,0.135,0.714,0.265,1.083,0.379c-0.043-0.015-0.087-0.028-0.134-0.043
		C43.358,57.217,43.042,57.101,42.73,56.983z"/>
	
		<linearGradient id="SVGID_49_" gradientUnits="userSpaceOnUse" x1="-159.3774" y1="704.6621" x2="-155.2525" y2="704.6621" gradientTransform="matrix(-0.1728 1.1918 -1.1918 -0.1728 859.2302 369.4901)">
		<stop  offset="0" style="stop-color:#9DC44E"/>
		<stop  offset="1" style="stop-color:#C4D54B"/>
	</linearGradient>
	<path fill="url(#SVGID_49_)" d="M46.108,57.929c-0.056-0.006-0.106-0.016-0.162-0.023c0.634,0.123,1.278,0.216,1.936,0.28
		c-0.129-0.012-0.26-0.021-0.384-0.043C47.026,58.095,46.561,58.021,46.108,57.929z"/>
	
		<linearGradient id="SVGID_50_" gradientUnits="userSpaceOnUse" x1="-159.3696" y1="692.6787" x2="-155.2286" y2="692.6787" gradientTransform="matrix(-0.1728 1.1918 -1.1918 -0.1728 859.2302 369.4901)">
		<stop  offset="0" style="stop-color:#9DC44E"/>
		<stop  offset="1" style="stop-color:#C4D54B"/>
	</linearGradient>
	<path fill="url(#SVGID_50_)" d="M62.482,52.52c-0.065-0.295-0.148-0.579-0.245-0.861C62.334,51.938,62.417,52.226,62.482,52.52z"/>
	
		<linearGradient id="SVGID_51_" gradientUnits="userSpaceOnUse" x1="-159.3779" y1="702.3506" x2="-155.2417" y2="702.3506" gradientTransform="matrix(-0.1728 1.1918 -1.1918 -0.1728 859.2302 369.4901)">
		<stop  offset="0" style="stop-color:#9DC44E"/>
		<stop  offset="1" style="stop-color:#C4D54B"/>
	</linearGradient>
	<path fill="url(#SVGID_51_)" d="M40.553,55.991c-0.052-0.028-0.109-0.054-0.157-0.086c0.024,0.018,0.056,0.025,0.084,0.04
		c-0.984-0.539-1.893-1.164-2.705-1.872c0.441,0.688,6.366,9.585,17.363,8.52c4.038-0.387,7.142-3.545,7.526-7.431
		c-2.705,1.914-6.138,3.215-9.961,3.538c-4.285,0.362-8.3-0.565-11.478-2.362c0.219,0.107,0.449,0.203,0.675,0.302
		c-0.366-0.16-0.725-0.327-1.071-0.507C40.734,56.084,40.646,56.038,40.553,55.991z M52.812,60.002
		c2.669-0.223,5.218-0.898,7.526-1.98c-1.13,1.798-3.077,3.053-5.327,3.271c-3.768,0.363-6.892-0.525-9.36-1.829
		C47.942,60.017,50.373,60.207,52.812,60.002z"/>
	
		<linearGradient id="SVGID_52_" gradientUnits="userSpaceOnUse" x1="-159.3765" y1="694.1006" x2="-155.2399" y2="694.1006" gradientTransform="matrix(-0.1728 1.1918 -1.1918 -0.1728 859.2302 369.4901)">
		<stop  offset="0" style="stop-color:#9DC44E"/>
		<stop  offset="1" style="stop-color:#C4D54B"/>
	</linearGradient>
	<path fill="url(#SVGID_52_)" d="M60.764,49.041c0.182,0.22,0.355,0.447,0.516,0.686C61.117,49.487,60.947,49.261,60.764,49.041z"/>
	
		<linearGradient id="SVGID_53_" gradientUnits="userSpaceOnUse" x1="-159.3867" y1="693.3008" x2="-155.2557" y2="693.3008" gradientTransform="matrix(-0.1728 1.1918 -1.1918 -0.1728 859.2302 369.4901)">
		<stop  offset="0" style="stop-color:#9DC44E"/>
		<stop  offset="1" style="stop-color:#C4D54B"/>
	</linearGradient>
	<path fill="url(#SVGID_53_)" d="M61.614,50.272c0.143,0.252,0.274,0.514,0.391,0.783C61.889,50.785,61.757,50.526,61.614,50.272z"
		/>
	
		<linearGradient id="SVGID_54_" gradientUnits="userSpaceOnUse" x1="-159.3828" y1="692.8838" x2="-155.2509" y2="692.8838" gradientTransform="matrix(-0.1728 1.1918 -1.1918 -0.1728 859.2302 369.4901)">
		<stop  offset="0" style="stop-color:#9DC44E"/>
		<stop  offset="1" style="stop-color:#C4D54B"/>
	</linearGradient>
	<path fill="url(#SVGID_54_)" d="M61.249,55.018c0.335-0.221,0.657-0.45,0.973-0.69C61.91,54.564,61.585,54.8,61.249,55.018z"/>
	
		<linearGradient id="SVGID_55_" gradientUnits="userSpaceOnUse" x1="-159.376" y1="695.3398" x2="-155.2373" y2="695.3398" gradientTransform="matrix(-0.1728 1.1918 -1.1918 -0.1728 859.2302 369.4901)">
		<stop  offset="0" style="stop-color:#9DC44E"/>
		<stop  offset="1" style="stop-color:#C4D54B"/>
	</linearGradient>
	<path fill="url(#SVGID_55_)" d="M57.728,56.846c0.517-0.203,1.017-0.427,1.505-0.667C58.746,56.413,58.247,56.642,57.728,56.846z"
		/>
	
		<linearGradient id="SVGID_56_" gradientUnits="userSpaceOnUse" x1="-159.3779" y1="701.4023" x2="-155.244" y2="701.4023" gradientTransform="matrix(-0.1728 1.1918 -1.1918 -0.1728 859.2302 369.4901)">
		<stop  offset="0" style="stop-color:#9DC44E"/>
		<stop  offset="1" style="stop-color:#C4D54B"/>
	</linearGradient>
	<path fill="url(#SVGID_56_)" d="M49.924,58.284c-0.002,0-0.005,0-0.008,0c0.619,0.001,1.24-0.016,1.871-0.069
		C51.161,58.272,50.542,58.288,49.924,58.284z"/>
	
		<linearGradient id="SVGID_57_" gradientUnits="userSpaceOnUse" x1="-159.3784" y1="696.5947" x2="-155.2441" y2="696.5947" gradientTransform="matrix(-0.1728 1.1918 -1.1918 -0.1728 859.2302 369.4901)">
		<stop  offset="0" style="stop-color:#9DC44E"/>
		<stop  offset="1" style="stop-color:#C4D54B"/>
	</linearGradient>
	<path fill="url(#SVGID_57_)" d="M56.092,57.401c0.525-0.157,1.04-0.329,1.541-0.522c-0.098,0.035-0.197,0.069-0.299,0.102
		C56.925,57.135,56.511,57.271,56.092,57.401z"/>
	
		<linearGradient id="SVGID_58_" gradientUnits="userSpaceOnUse" x1="-159.377" y1="693.9414" x2="-155.2408" y2="693.9414" gradientTransform="matrix(-0.1728 1.1918 -1.1918 -0.1728 859.2302 369.4901)">
		<stop  offset="0" style="stop-color:#9DC44E"/>
		<stop  offset="1" style="stop-color:#C4D54B"/>
	</linearGradient>
	<path fill="url(#SVGID_58_)" d="M60.738,55.343c-0.274,0.17-0.562,0.326-0.845,0.484C60.181,55.671,60.462,55.51,60.738,55.343z"/>
	
		<linearGradient id="SVGID_59_" gradientUnits="userSpaceOnUse" x1="-159.3774" y1="699.8945" x2="-155.235" y2="699.8945" gradientTransform="matrix(-0.1728 1.1918 -1.1918 -0.1728 859.2302 369.4901)">
		<stop  offset="0" style="stop-color:#9DC44E"/>
		<stop  offset="1" style="stop-color:#C4D54B"/>
	</linearGradient>
	<path fill="url(#SVGID_59_)" d="M53.629,57.974c-0.607,0.108-1.214,0.193-1.842,0.241C52.413,58.163,53.024,58.078,53.629,57.974z"
		/>
	
		<linearGradient id="SVGID_60_" gradientUnits="userSpaceOnUse" x1="-159.3804" y1="703.0879" x2="-155.176" y2="703.0879" gradientTransform="matrix(-0.1728 1.1918 -1.1918 -0.1728 859.2302 369.4901)">
		<stop  offset="0" style="stop-color:#9DC44E"/>
		<stop  offset="1" style="stop-color:#C4D54B"/>
	</linearGradient>
	<path fill="url(#SVGID_60_)" d="M49.276,58.275c-0.319-0.015-0.638-0.033-0.952-0.054C48.639,58.245,48.957,58.265,49.276,58.275z"
		/>
	
		<linearGradient id="SVGID_61_" gradientUnits="userSpaceOnUse" x1="-159.376" y1="708.5771" x2="-155.2085" y2="708.5771" gradientTransform="matrix(-0.1728 1.1918 -1.1918 -0.1728 859.2302 369.4901)">
		<stop  offset="0" style="stop-color:#9DC44E"/>
		<stop  offset="1" style="stop-color:#C4D54B"/>
	</linearGradient>
	<path fill="url(#SVGID_61_)" d="M42.439,56.876c-0.076-0.033-0.15-0.064-0.224-0.096C42.291,56.812,42.363,56.846,42.439,56.876z"
		/>
	
		<linearGradient id="SVGID_62_" gradientUnits="userSpaceOnUse" x1="-159.3784" y1="698.1484" x2="-155.2468" y2="698.1484" gradientTransform="matrix(-0.1728 1.1918 -1.1918 -0.1728 859.2302 369.4901)">
		<stop  offset="0" style="stop-color:#9DC44E"/>
		<stop  offset="1" style="stop-color:#C4D54B"/>
	</linearGradient>
	<path fill="url(#SVGID_62_)" d="M54.342,57.836c0.371-0.077,0.734-0.161,1.094-0.255C55.08,57.672,54.711,57.756,54.342,57.836z"/>
	
		<linearGradient id="SVGID_63_" gradientUnits="userSpaceOnUse" x1="-159.377" y1="706.3789" x2="-155.2723" y2="706.3789" gradientTransform="matrix(-0.1728 1.1918 -1.1918 -0.1728 859.2302 369.4901)">
		<stop  offset="0" style="stop-color:#9DC44E"/>
		<stop  offset="1" style="stop-color:#C4D54B"/>
	</linearGradient>
	<path fill="url(#SVGID_63_)" d="M45.375,57.779c-0.333-0.076-0.662-0.157-0.987-0.249C44.71,57.622,45.041,57.704,45.375,57.779z"
		/>
	
		<linearGradient id="SVGID_64_" gradientUnits="userSpaceOnUse" x1="-159.3779" y1="699.582" x2="-155.2422" y2="699.582" gradientTransform="matrix(-0.1728 1.1918 -1.1918 -0.1728 859.2302 369.4901)">
		<stop  offset="0" style="stop-color:#9DC44E"/>
		<stop  offset="1" style="stop-color:#C4D54B"/>
	</linearGradient>
	<path fill="url(#SVGID_64_)" d="M55.012,61.293c2.25-0.219,4.197-1.474,5.327-3.271c-2.309,1.082-4.857,1.758-7.526,1.98
		c-2.439,0.205-4.87,0.015-7.161-0.538C48.12,60.768,51.244,61.656,55.012,61.293z"/>
	
		<linearGradient id="SVGID_65_" gradientUnits="userSpaceOnUse" x1="-505.9478" y1="544.0244" x2="-501.8136" y2="544.0244" gradientTransform="matrix(4.7379 -5.4053 -5.4053 -4.7379 5385.918 -92.9594)">
		<stop  offset="0" style="stop-color:#DDE599"/>
		<stop  offset="0.0123" style="stop-color:#DDE599"/>
		<stop  offset="0.2699" style="stop-color:#C4D54B"/>
		<stop  offset="1" style="stop-color:#9DC44E"/>
	</linearGradient>
	<path fill="url(#SVGID_65_)" d="M55.012,61.293c2.25-0.219,4.197-1.474,5.327-3.271c-2.309,1.082-4.857,1.758-7.526,1.98
		c-2.439,0.205-4.87,0.015-7.161-0.538C48.12,60.768,51.244,61.656,55.012,61.293z"/>
	
		<linearGradient id="SVGID_66_" gradientUnits="userSpaceOnUse" x1="-378.9956" y1="615.3779" x2="-374.7811" y2="615.3779" gradientTransform="matrix(0.3382 4.007 -4.007 0.3382 2636.7925 1352.5181)">
		<stop  offset="0" style="stop-color:#9DC44E"/>
		<stop  offset="1" style="stop-color:#C4D54B"/>
	</linearGradient>
	<path fill="url(#SVGID_66_)" d="M43.813,57.362c0.095,0.034,0.187,0.066,0.285,0.095c0.095,0.027,0.194,0.046,0.29,0.073
		C44.194,57.477,44.001,57.423,43.813,57.362z"/>
	
		<linearGradient id="SVGID_67_" gradientUnits="userSpaceOnUse" x1="-378.9248" y1="615" x2="-374.7884" y2="615" gradientTransform="matrix(0.3382 4.007 -4.007 0.3382 2636.7925 1352.5181)">
		<stop  offset="0" style="stop-color:#9DC44E"/>
		<stop  offset="1" style="stop-color:#C4D54B"/>
	</linearGradient>
	<path fill="url(#SVGID_67_)" d="M45.375,57.779c0.128,0.03,0.25,0.068,0.378,0.097c0.062,0.014,0.13,0.021,0.194,0.029
		C45.755,57.867,45.564,57.823,45.375,57.779z"/>
	
		<linearGradient id="SVGID_68_" gradientUnits="userSpaceOnUse" x1="-378.8877" y1="612.3613" x2="-374.8723" y2="612.3613" gradientTransform="matrix(0.3382 4.007 -4.007 0.3382 2636.7925 1352.5181)">
		<stop  offset="0" style="stop-color:#9DC44E"/>
		<stop  offset="1" style="stop-color:#C4D54B"/>
	</linearGradient>
	<path fill="url(#SVGID_68_)" d="M55.684,46.18c-0.24-0.035-0.481-0.058-0.727-0.07C55.202,46.122,55.443,46.145,55.684,46.18z"/>
	
		<linearGradient id="SVGID_69_" gradientUnits="userSpaceOnUse" x1="-378.9243" y1="610.0527" x2="-374.7908" y2="610.0527" gradientTransform="matrix(0.3382 4.007 -4.007 0.3382 2636.7925 1352.5181)">
		<stop  offset="0" style="stop-color:#9DC44E"/>
		<stop  offset="1" style="stop-color:#C4D54B"/>
	</linearGradient>
	<path fill="url(#SVGID_69_)" d="M66.34,40.303c0.259,0.792,0.448,1.603,0.524,2.451c0.324,3.775-1.349,7.345-4.292,10.074
		c-0.021-0.105-0.064-0.203-0.09-0.309c0.086,0.371,0.174,0.743,0.207,1.133c0,0.113,0,0.211,0.007,0.318v-0.015
		c0.84-0.688,1.608-1.434,2.267-2.242C67.24,48.398,67.821,44.139,66.34,40.303z"/>
	
		<linearGradient id="SVGID_70_" gradientUnits="userSpaceOnUse" x1="-378.917" y1="612.4883" x2="-374.7885" y2="612.4883" gradientTransform="matrix(0.3382 4.007 -4.007 0.3382 2636.7925 1352.5181)">
		<stop  offset="0" style="stop-color:#9DC44E"/>
		<stop  offset="1" style="stop-color:#C4D54B"/>
	</linearGradient>
	<path fill="url(#SVGID_70_)" d="M55.445,57.578c0.202-0.049,0.403-0.105,0.59-0.158c0.02-0.006,0.037-0.013,0.057-0.019
		c-0.216,0.063-0.437,0.121-0.656,0.18C55.438,57.58,55.441,57.579,55.445,57.578z"/>
	
		<linearGradient id="SVGID_71_" gradientUnits="userSpaceOnUse" x1="-378.855" y1="615.7422" x2="-374.7982" y2="615.7422" gradientTransform="matrix(0.3382 4.007 -4.007 0.3382 2636.7925 1352.5181)">
		<stop  offset="0" style="stop-color:#9DC44E"/>
		<stop  offset="1" style="stop-color:#C4D54B"/>
	</linearGradient>
	<path fill="url(#SVGID_71_)" d="M42.483,56.895c0.081,0.033,0.167,0.058,0.247,0.089c-0.096-0.036-0.197-0.069-0.291-0.107
		C42.454,56.882,42.468,56.889,42.483,56.895z"/>
	
		<linearGradient id="SVGID_72_" gradientUnits="userSpaceOnUse" x1="-379.0488" y1="614.0332" x2="-374.7871" y2="614.0332" gradientTransform="matrix(0.3382 4.007 -4.007 0.3382 2636.7925 1352.5181)">
		<stop  offset="0" style="stop-color:#9DC44E"/>
		<stop  offset="1" style="stop-color:#C4D54B"/>
	</linearGradient>
	<path fill="url(#SVGID_72_)" d="M49.367,58.279c0.184,0.005,0.371,0.008,0.549,0.005c-0.214,0-0.428-0.002-0.64-0.009
		C49.307,58.276,49.337,58.278,49.367,58.279z"/>
	
		<linearGradient id="SVGID_73_" gradientUnits="userSpaceOnUse" x1="-378.8213" y1="614.4023" x2="-374.7896" y2="614.4023" gradientTransform="matrix(0.3382 4.007 -4.007 0.3382 2636.7925 1352.5181)">
		<stop  offset="0" style="stop-color:#9DC44E"/>
		<stop  offset="1" style="stop-color:#C4D54B"/>
	</linearGradient>
	<path fill="url(#SVGID_73_)" d="M48.084,58.207c0.08,0.007,0.16,0.009,0.241,0.015c-0.148-0.011-0.297-0.021-0.442-0.036
		C47.951,58.192,48.015,58.198,48.084,58.207z"/>
	
		<linearGradient id="SVGID_74_" gradientUnits="userSpaceOnUse" x1="-378.4111" y1="612" x2="-374.8153" y2="612" gradientTransform="matrix(0.3382 4.007 -4.007 0.3382 2636.7925 1352.5181)">
		<stop  offset="0" style="stop-color:#9DC44E"/>
		<stop  offset="1" style="stop-color:#C4D54B"/>
	</linearGradient>
	<path fill="url(#SVGID_74_)" d="M57.716,56.851c0.003-0.002,0.007-0.003,0.012-0.005c-0.031,0.012-0.064,0.021-0.095,0.033
		C57.659,56.869,57.689,56.861,57.716,56.851z"/>
	
		<linearGradient id="SVGID_75_" gradientUnits="userSpaceOnUse" x1="-378.8535" y1="612.9375" x2="-374.7887" y2="612.9375" gradientTransform="matrix(0.3382 4.007 -4.007 0.3382 2636.7925 1352.5181)">
		<stop  offset="0" style="stop-color:#9DC44E"/>
		<stop  offset="1" style="stop-color:#C4D54B"/>
	</linearGradient>
	<path fill="url(#SVGID_75_)" d="M53.636,57.974c0.194-0.028,0.37-0.064,0.565-0.105c0.048-0.01,0.094-0.022,0.141-0.032
		c-0.236,0.049-0.472,0.097-0.713,0.138C53.632,57.974,53.635,57.974,53.636,57.974z"/>
	
		<linearGradient id="SVGID_76_" gradientUnits="userSpaceOnUse" x1="-378.9292" y1="611.998" x2="-374.774" y2="611.998" gradientTransform="matrix(0.3382 4.007 -4.007 0.3382 2636.7925 1352.5181)">
		<stop  offset="0" style="stop-color:#9DC44E"/>
		<stop  offset="1" style="stop-color:#C4D54B"/>
	</linearGradient>
	<path fill="url(#SVGID_76_)" d="M57.146,46.535c-0.22-0.076-0.439-0.142-0.668-0.199C56.704,46.393,56.927,46.458,57.146,46.535z"
		/>
	
		<linearGradient id="SVGID_77_" gradientUnits="userSpaceOnUse" x1="-378.9434" y1="611.1445" x2="-374.7843" y2="611.1445" gradientTransform="matrix(0.3382 4.007 -4.007 0.3382 2636.7925 1352.5181)">
		<stop  offset="0" style="stop-color:#9DC44E"/>
		<stop  offset="1" style="stop-color:#C4D54B"/>
	</linearGradient>
	<path fill="url(#SVGID_77_)" d="M60.755,55.332c0.165-0.098,0.319-0.197,0.477-0.303c0.006-0.003,0.01-0.007,0.018-0.012
		c-0.169,0.111-0.34,0.22-0.511,0.325C60.743,55.339,60.75,55.335,60.755,55.332z"/>
	
		<linearGradient id="SVGID_78_" gradientUnits="userSpaceOnUse" x1="-378.9033" y1="611.5156" x2="-374.7899" y2="611.5156" gradientTransform="matrix(0.3382 4.007 -4.007 0.3382 2636.7925 1352.5181)">
		<stop  offset="0" style="stop-color:#9DC44E"/>
		<stop  offset="1" style="stop-color:#C4D54B"/>
	</linearGradient>
	<path fill="url(#SVGID_78_)" d="M59.265,56.164c0.153-0.072,0.3-0.157,0.448-0.233c0.061-0.035,0.119-0.07,0.181-0.104
		c-0.22,0.118-0.436,0.24-0.661,0.352C59.243,56.174,59.255,56.169,59.265,56.164z"/>
	
		<linearGradient id="SVGID_79_" gradientUnits="userSpaceOnUse" x1="-378.9351" y1="610.7598" x2="-374.785" y2="610.7598" gradientTransform="matrix(0.3382 4.007 -4.007 0.3382 2636.7925 1352.5181)">
		<stop  offset="0" style="stop-color:#9DC44E"/>
		<stop  offset="1" style="stop-color:#C4D54B"/>
	</linearGradient>
	<path fill="url(#SVGID_79_)" d="M62.246,54.311c0.108-0.076,0.208-0.152,0.306-0.225c0.05-0.046,0.102-0.078,0.145-0.115
		c-0.151,0.125-0.317,0.237-0.475,0.356C62.229,54.322,62.238,54.316,62.246,54.311z"/>
	
		<linearGradient id="SVGID_80_" gradientUnits="userSpaceOnUse" x1="-378.9141" y1="611.1211" x2="-374.7978" y2="611.1211" gradientTransform="matrix(0.3382 4.007 -4.007 0.3382 2636.7925 1352.5181)">
		<stop  offset="0" style="stop-color:#9DC44E"/>
		<stop  offset="1" style="stop-color:#C4D54B"/>
	</linearGradient>
	<path fill="url(#SVGID_80_)" d="M60.332,48.562c0.149,0.154,0.293,0.313,0.432,0.479C60.625,48.875,60.484,48.716,60.332,48.562z"
		/>
	
		<linearGradient id="SVGID_81_" gradientUnits="userSpaceOnUse" x1="-378.9268" y1="610.9238" x2="-374.7848" y2="610.9238" gradientTransform="matrix(0.3382 4.007 -4.007 0.3382 2636.7925 1352.5181)">
		<stop  offset="0" style="stop-color:#9DC44E"/>
		<stop  offset="1" style="stop-color:#C4D54B"/>
	</linearGradient>
	<path fill="url(#SVGID_81_)" d="M61.279,49.727c0.117,0.177,0.229,0.358,0.335,0.546C61.508,50.085,61.397,49.904,61.279,49.727z"
		/>
	
		<linearGradient id="SVGID_82_" gradientUnits="userSpaceOnUse" x1="-378.9258" y1="610.7852" x2="-374.7863" y2="610.7852" gradientTransform="matrix(0.3382 4.007 -4.007 0.3382 2636.7925 1352.5181)">
		<stop  offset="0" style="stop-color:#9DC44E"/>
		<stop  offset="1" style="stop-color:#C4D54B"/>
	</linearGradient>
	<path fill="url(#SVGID_82_)" d="M62.005,51.056c0.085,0.196,0.161,0.398,0.232,0.603C62.166,51.452,62.09,51.252,62.005,51.056z"/>
	
		<linearGradient id="SVGID_83_" gradientUnits="userSpaceOnUse" x1="-378.9282" y1="611.3711" x2="-374.7792" y2="611.3711" gradientTransform="matrix(0.3382 4.007 -4.007 0.3382 2636.7925 1352.5181)">
		<stop  offset="0" style="stop-color:#9DC44E"/>
		<stop  offset="1" style="stop-color:#C4D54B"/>
	</linearGradient>
	<path fill="url(#SVGID_83_)" d="M59.198,47.591c0.178,0.126,0.35,0.26,0.518,0.4C59.548,47.851,59.377,47.718,59.198,47.591z"/>
	
		<linearGradient id="SVGID_84_" gradientUnits="userSpaceOnUse" x1="-378.9429" y1="615.8682" x2="-374.7844" y2="615.8682" gradientTransform="matrix(0.3382 4.007 -4.007 0.3382 2636.7925 1352.5181)">
		<stop  offset="0" style="stop-color:#9DC44E"/>
		<stop  offset="1" style="stop-color:#C4D54B"/>
	</linearGradient>
	<path fill="url(#SVGID_84_)" d="M42.031,56.701c0.059,0.024,0.123,0.054,0.184,0.079c-0.106-0.044-0.207-0.094-0.313-0.141
		C41.945,56.659,41.988,56.683,42.031,56.701z"/>
	
		<linearGradient id="SVGID_85_" gradientUnits="userSpaceOnUse" x1="-378.9058" y1="616.8789" x2="-374.7962" y2="616.8789" gradientTransform="matrix(0.3382 4.007 -4.007 0.3382 2636.7925 1352.5181)">
		<stop  offset="0" style="stop-color:#9DC44E"/>
		<stop  offset="1" style="stop-color:#C4D54B"/>
	</linearGradient>
	<path fill="url(#SVGID_85_)" d="M37.774,54.072c0,0.001,0.001,0.001,0.001,0.001c-0.017-0.026-0.042-0.065-0.042-0.065
		S37.759,54.048,37.774,54.072z"/>
	
		<linearGradient id="SVGID_86_" gradientUnits="userSpaceOnUse" x1="-378.916" y1="611.6641" x2="-374.8" y2="611.6641" gradientTransform="matrix(0.3382 4.007 -4.007 0.3382 2636.7925 1352.5181)">
		<stop  offset="0" style="stop-color:#9DC44E"/>
		<stop  offset="1" style="stop-color:#C4D54B"/>
	</linearGradient>
	<path fill="url(#SVGID_86_)" d="M57.903,46.839c0.204,0.095,0.401,0.197,0.597,0.307C58.305,47.035,58.107,46.935,57.903,46.839z"
		/>
	
		<linearGradient id="SVGID_87_" gradientUnits="userSpaceOnUse" x1="-159.3779" y1="702.4326" x2="-155.2421" y2="702.4326" gradientTransform="matrix(-0.1728 1.1918 -1.1918 -0.1728 859.2302 369.4901)">
		<stop  offset="0" style="stop-color:#9DC44E"/>
		<stop  offset="1" style="stop-color:#C4D54B"/>
	</linearGradient>
	<path fill="url(#SVGID_87_)" d="M62.482,52.52c-0.065-0.294-0.148-0.581-0.245-0.861c-0.071-0.204-0.147-0.406-0.232-0.603
		c-0.116-0.27-0.248-0.531-0.391-0.783c-0.106-0.188-0.218-0.369-0.335-0.546c-0.16-0.238-0.334-0.466-0.516-0.686
		c-0.139-0.165-0.282-0.325-0.432-0.479c-0.194-0.202-0.402-0.391-0.616-0.571c-0.168-0.14-0.34-0.273-0.518-0.4
		c-0.226-0.16-0.459-0.308-0.698-0.445c-0.195-0.11-0.393-0.212-0.597-0.307c-0.245-0.115-0.498-0.215-0.757-0.305
		c-0.22-0.076-0.442-0.142-0.668-0.199c-0.26-0.066-0.524-0.117-0.795-0.156c-0.24-0.035-0.481-0.058-0.727-0.07
		c-0.397-0.021-0.797-0.04-1.204,0c-6.116,0.602-10.777,10.313-16.02,7.898c0,0,0.025,0.039,0.042,0.065
		c0.812,0.708,1.721,1.333,2.705,1.872c-0.029-0.015-0.061-0.022-0.084-0.04c0.047,0.032,0.105,0.058,0.157,0.086
		c0.093,0.047,0.182,0.093,0.278,0.142c0.347,0.18,0.706,0.347,1.071,0.507c0.106,0.047,0.207,0.097,0.313,0.141
		c0.074,0.031,0.148,0.062,0.224,0.096c0.094,0.038,0.195,0.071,0.291,0.107c0.312,0.117,0.628,0.233,0.949,0.336
		c0.047,0.015,0.091,0.028,0.134,0.043c0.188,0.061,0.381,0.114,0.575,0.168c0.325,0.092,0.654,0.173,0.987,0.249
		c0.19,0.044,0.38,0.088,0.572,0.126c0.056,0.008,0.106,0.018,0.162,0.023c0.453,0.093,0.918,0.166,1.39,0.214
		c0.124,0.021,0.255,0.031,0.384,0.043c0.145,0.015,0.294,0.025,0.442,0.036c0.314,0.021,0.632,0.039,0.952,0.054
		c0.212,0.007,0.426,0.009,0.64,0.009c0.003,0,0.006,0,0.008,0c0.618,0.004,1.237-0.012,1.863-0.069
		c0.628-0.048,1.234-0.133,1.842-0.241c0.241-0.041,0.477-0.089,0.713-0.138c0.369-0.08,0.738-0.164,1.094-0.255
		c0.22-0.059,0.44-0.116,0.656-0.18c0.419-0.13,0.833-0.267,1.242-0.421c0.102-0.032,0.201-0.066,0.299-0.102
		c0.03-0.013,0.063-0.021,0.095-0.033c0.52-0.204,1.019-0.433,1.505-0.667c0.226-0.111,0.441-0.233,0.661-0.352
		c0.283-0.158,0.57-0.314,0.845-0.484c0.171-0.105,0.342-0.214,0.511-0.325c0.336-0.218,0.661-0.453,0.973-0.69
		c0.157-0.119,0.323-0.231,0.475-0.356c-0.007-0.107-0.007-0.205-0.007-0.318C62.656,53.263,62.568,52.891,62.482,52.52z
		 M60.509,53.939c-0.146,0.101-0.292,0.186-0.437,0.279c-0.314,0.193-0.642,0.371-0.973,0.553l-0.42,0.218
		c-0.461,0.23-0.938,0.44-1.441,0.642l-0.348,0.121c-0.403,0.153-0.808,0.291-1.223,0.407c-0.183,0.055-0.361,0.102-0.55,0.15
		c-0.387,0.102-0.779,0.193-1.167,0.267l-0.537,0.109c-0.574,0.101-1.146,0.182-1.736,0.226c-0.586,0.053-1.17,0.069-1.754,0.069
		l-0.52-0.017c-0.404-0.009-0.809-0.033-1.217-0.061c-0.173-0.024-0.358-0.036-0.54-0.061c-0.437-0.05-0.868-0.117-1.297-0.194
		l-0.33-0.056c-0.526-0.105-1.042-0.239-1.551-0.388l-0.387-0.133c-0.375-0.127-0.751-0.251-1.106-0.393
		c-0.15-0.064-0.294-0.121-0.433-0.182c-0.231-0.102-0.457-0.202-0.674-0.307c1.792-0.759,3.496-2.225,5.168-3.671
		c1.271-1.092,2.567-2.198,3.882-2.993c-1.177,0.573-2.303,1.408-3.396,2.319c1.941-1.866,3.984-3.687,6.257-3.917
		c0.215-0.024,0.429-0.032,0.647-0.032c3.198,0,6.003,2.386,7.026,5.717l0,0c-0.229-0.509-0.519-0.979-0.835-1.426
		c0.297,0.583,0.537,1.203,0.661,1.874l0.061,0.292C61.074,53.555,60.798,53.751,60.509,53.939z"/>
	
		<linearGradient id="SVGID_88_" gradientUnits="userSpaceOnUse" x1="-378.9219" y1="613.7881" x2="-374.7878" y2="613.7881" gradientTransform="matrix(0.3382 4.007 -4.007 0.3382 2636.7925 1352.5181)">
		<stop  offset="0" style="stop-color:#9DC44E"/>
		<stop  offset="1" style="stop-color:#C4D54B"/>
	</linearGradient>
	<path fill="url(#SVGID_88_)" d="M62.482,52.52c-0.065-0.294-0.148-0.581-0.245-0.861c-0.071-0.204-0.147-0.406-0.232-0.603
		c-0.116-0.27-0.248-0.531-0.391-0.783c-0.106-0.188-0.218-0.369-0.335-0.546c-0.16-0.238-0.334-0.466-0.516-0.686
		c-0.139-0.165-0.282-0.325-0.432-0.479c-0.194-0.202-0.402-0.391-0.616-0.571c-0.168-0.14-0.34-0.273-0.518-0.4
		c-0.226-0.16-0.459-0.308-0.698-0.445c-0.195-0.11-0.393-0.212-0.597-0.307c-0.245-0.115-0.498-0.215-0.757-0.305
		c-0.22-0.076-0.442-0.142-0.668-0.199c-0.26-0.066-0.524-0.117-0.795-0.156c-0.24-0.035-0.481-0.058-0.727-0.07
		c-0.397-0.021-0.797-0.04-1.204,0c-6.116,0.602-10.777,10.313-16.02,7.898c0,0,0.025,0.039,0.042,0.065
		c0.812,0.708,1.721,1.333,2.705,1.872c-0.029-0.015-0.061-0.022-0.084-0.04c0.047,0.032,0.105,0.058,0.157,0.086
		c0.093,0.047,0.182,0.093,0.278,0.142c0.347,0.18,0.706,0.347,1.071,0.507c0.106,0.047,0.207,0.097,0.313,0.141
		c0.074,0.031,0.148,0.062,0.224,0.096c0.094,0.038,0.195,0.071,0.291,0.107c0.312,0.117,0.628,0.233,0.949,0.336
		c0.047,0.015,0.091,0.028,0.134,0.043c0.188,0.061,0.381,0.114,0.575,0.168c0.325,0.092,0.654,0.173,0.987,0.249
		c0.19,0.044,0.38,0.088,0.572,0.126c0.056,0.008,0.106,0.018,0.162,0.023c0.453,0.093,0.918,0.166,1.39,0.214
		c0.124,0.021,0.255,0.031,0.384,0.043c0.145,0.015,0.294,0.025,0.442,0.036c0.314,0.021,0.632,0.039,0.952,0.054
		c0.212,0.007,0.426,0.009,0.64,0.009c0.003,0,0.006,0,0.008,0c0.618,0.004,1.237-0.012,1.863-0.069
		c0.628-0.048,1.234-0.133,1.842-0.241c0.241-0.041,0.477-0.089,0.713-0.138c0.369-0.08,0.738-0.164,1.094-0.255
		c0.22-0.059,0.44-0.116,0.656-0.18c0.419-0.13,0.833-0.267,1.242-0.421c0.102-0.032,0.201-0.066,0.299-0.102
		c0.03-0.013,0.063-0.021,0.095-0.033c0.52-0.204,1.019-0.433,1.505-0.667c0.226-0.111,0.441-0.233,0.661-0.352
		c0.283-0.158,0.57-0.314,0.845-0.484c0.171-0.105,0.342-0.214,0.511-0.325c0.336-0.218,0.661-0.453,0.973-0.69
		c0.157-0.119,0.323-0.231,0.475-0.356c-0.007-0.107-0.007-0.205-0.007-0.318C62.656,53.263,62.568,52.891,62.482,52.52z
		 M60.509,53.939c-0.146,0.101-0.292,0.186-0.437,0.279c-0.314,0.193-0.642,0.371-0.973,0.553l-0.42,0.218
		c-0.461,0.23-0.938,0.44-1.441,0.642l-0.348,0.121c-0.403,0.153-0.808,0.291-1.223,0.407c-0.183,0.055-0.361,0.102-0.55,0.15
		c-0.387,0.102-0.779,0.193-1.167,0.267l-0.537,0.109c-0.574,0.101-1.146,0.182-1.736,0.226c-0.586,0.053-1.17,0.069-1.754,0.069
		l-0.52-0.017c-0.404-0.009-0.809-0.033-1.217-0.061c-0.173-0.024-0.358-0.036-0.54-0.061c-0.437-0.05-0.868-0.117-1.297-0.194
		l-0.33-0.056c-0.526-0.105-1.042-0.239-1.551-0.388l-0.387-0.133c-0.375-0.127-0.751-0.251-1.106-0.393
		c-0.15-0.064-0.294-0.121-0.433-0.182c-0.231-0.102-0.457-0.202-0.674-0.307c1.792-0.759,3.496-2.225,5.168-3.671
		c1.271-1.092,2.567-2.198,3.882-2.993c-1.177,0.573-2.303,1.408-3.396,2.319c1.941-1.866,3.984-3.687,6.257-3.917
		c0.215-0.024,0.429-0.032,0.647-0.032c3.198,0,6.003,2.386,7.026,5.717l0,0c-0.229-0.509-0.519-0.979-0.835-1.426
		c0.297,0.583,0.537,1.203,0.661,1.874l0.061,0.292C61.074,53.555,60.798,53.751,60.509,53.939z"/>
	
		<linearGradient id="SVGID_89_" gradientUnits="userSpaceOnUse" x1="-159.3779" y1="701.2559" x2="-155.2423" y2="701.2559" gradientTransform="matrix(-0.1728 1.1918 -1.1918 -0.1728 859.2302 369.4901)">
		<stop  offset="0" style="stop-color:#9DC44E"/>
		<stop  offset="1" style="stop-color:#C4D54B"/>
	</linearGradient>
	<path fill="url(#SVGID_89_)" d="M60.619,51.188c-1.62-2.283-4.309-3.693-7.242-3.403c-0.848,0.083-1.664,0.354-2.457,0.742
		c-1.314,0.795-2.61,1.901-3.882,2.993c-1.672,1.446-3.376,2.912-5.168,3.671c0.217,0.104,0.443,0.205,0.674,0.307
		c0.138,0.061,0.283,0.117,0.433,0.182c0.355,0.142,0.731,0.266,1.106,0.393l0.387,0.133c0.509,0.148,1.025,0.282,1.551,0.388
		l0.33,0.056c0.429,0.077,0.86,0.145,1.297,0.194c0.182,0.024,0.367,0.036,0.54,0.061c0.408,0.027,0.812,0.052,1.217,0.061
		l0.52,0.017c0.584,0,1.168-0.017,1.754-0.069c0.59-0.044,1.162-0.125,1.736-0.226l0.537-0.109c0.388-0.073,0.78-0.165,1.167-0.267
		c0.188-0.049,0.367-0.096,0.55-0.15c0.415-0.116,0.819-0.254,1.223-0.407l0.348-0.121c0.504-0.201,0.98-0.411,1.441-0.642
		l0.42-0.218c0.331-0.182,0.658-0.359,0.973-0.553c0.145-0.094,0.291-0.179,0.437-0.279c0.289-0.188,0.565-0.385,0.832-0.585
		l-0.061-0.292C61.156,52.392,60.916,51.771,60.619,51.188z"/>
	
		<linearGradient id="SVGID_90_" gradientUnits="userSpaceOnUse" x1="-378.9214" y1="613.4512" x2="-374.7888" y2="613.4512" gradientTransform="matrix(0.3382 4.007 -4.007 0.3382 2636.7925 1352.5181)">
		<stop  offset="0" style="stop-color:#9DC44E"/>
		<stop  offset="1" style="stop-color:#C4D54B"/>
	</linearGradient>
	<path fill="url(#SVGID_90_)" d="M60.619,51.188c-1.62-2.283-4.309-3.693-7.242-3.403c-0.848,0.083-1.664,0.354-2.457,0.742
		c-1.314,0.795-2.61,1.901-3.882,2.993c-1.672,1.446-3.376,2.912-5.168,3.671c0.217,0.104,0.443,0.205,0.674,0.307
		c0.138,0.061,0.283,0.117,0.433,0.182c0.355,0.142,0.731,0.266,1.106,0.393l0.387,0.133c0.509,0.148,1.025,0.282,1.551,0.388
		l0.33,0.056c0.429,0.077,0.86,0.145,1.297,0.194c0.182,0.024,0.367,0.036,0.54,0.061c0.408,0.027,0.812,0.052,1.217,0.061
		l0.52,0.017c0.584,0,1.168-0.017,1.754-0.069c0.59-0.044,1.162-0.125,1.736-0.226l0.537-0.109c0.388-0.073,0.78-0.165,1.167-0.267
		c0.188-0.049,0.367-0.096,0.55-0.15c0.415-0.116,0.819-0.254,1.223-0.407l0.348-0.121c0.504-0.201,0.98-0.411,1.441-0.642
		l0.42-0.218c0.331-0.182,0.658-0.359,0.973-0.553c0.145-0.094,0.291-0.179,0.437-0.279c0.289-0.188,0.565-0.385,0.832-0.585
		l-0.061-0.292C61.156,52.392,60.916,51.771,60.619,51.188z"/>
	
		<linearGradient id="SVGID_91_" gradientUnits="userSpaceOnUse" x1="-605.9336" y1="480.0859" x2="-601.8007" y2="480.0859" gradientTransform="matrix(0.4713 -2.2666 2.2666 0.4713 -751.4521 -1543.1459)">
		<stop  offset="0" style="stop-color:#DDE599"/>
		<stop  offset="0.0123" style="stop-color:#DDE599"/>
		<stop  offset="0.2699" style="stop-color:#C4D54B"/>
		<stop  offset="1" style="stop-color:#9DC44E"/>
	</linearGradient>
	<path fill="url(#SVGID_91_)" d="M60.619,51.188c-1.62-2.283-4.309-3.693-7.242-3.403c-0.848,0.083-1.664,0.354-2.457,0.742
		c-1.314,0.795-2.61,1.901-3.882,2.993c-1.672,1.446-3.376,2.912-5.168,3.671c0.217,0.104,0.443,0.205,0.674,0.307
		c0.138,0.061,0.283,0.117,0.433,0.182c0.355,0.142,0.731,0.266,1.106,0.393l0.387,0.133c0.509,0.148,1.025,0.282,1.551,0.388
		l0.33,0.056c0.429,0.077,0.86,0.145,1.297,0.194c0.182,0.024,0.367,0.036,0.54,0.061c0.408,0.027,0.812,0.052,1.217,0.061
		l0.52,0.017c0.584,0,1.168-0.017,1.754-0.069c0.59-0.044,1.162-0.125,1.736-0.226l0.537-0.109c0.388-0.073,0.78-0.165,1.167-0.267
		c0.188-0.049,0.367-0.096,0.55-0.15c0.415-0.116,0.819-0.254,1.223-0.407l0.348-0.121c0.504-0.201,0.98-0.411,1.441-0.642
		l0.42-0.218c0.331-0.182,0.658-0.359,0.973-0.553c0.145-0.094,0.291-0.179,0.437-0.279c0.289-0.188,0.565-0.385,0.832-0.585
		l-0.061-0.292C61.156,52.392,60.916,51.771,60.619,51.188z"/>
	
		<linearGradient id="SVGID_92_" gradientUnits="userSpaceOnUse" x1="-159.3789" y1="699.1895" x2="-155.2436" y2="699.1895" gradientTransform="matrix(-0.1728 1.1918 -1.1918 -0.1728 859.2302 369.4901)">
		<stop  offset="0" style="stop-color:#9DC44E"/>
		<stop  offset="1" style="stop-color:#C4D54B"/>
	</linearGradient>
	<path fill="url(#SVGID_92_)" d="M54.512,47.382c2.589,0,4.939,1.526,6.107,3.807c0.316,0.447,0.606,0.917,0.835,1.426l0,0
		c-1.023-3.331-3.828-5.717-7.026-5.717c-0.219,0-0.433,0.008-0.647,0.032c-2.272,0.23-4.315,2.051-6.257,3.917
		c1.094-0.911,2.22-1.747,3.396-2.319c0.974-0.591,1.957-1.015,2.95-1.114C54.087,47.394,54.301,47.382,54.512,47.382z"/>
	
		<linearGradient id="SVGID_93_" gradientUnits="userSpaceOnUse" x1="-378.9214" y1="612.6836" x2="-374.788" y2="612.6836" gradientTransform="matrix(0.3382 4.007 -4.007 0.3382 2636.7925 1352.5181)">
		<stop  offset="0" style="stop-color:#9DC44E"/>
		<stop  offset="1" style="stop-color:#C4D54B"/>
	</linearGradient>
	<path fill="url(#SVGID_93_)" d="M54.512,47.382c2.589,0,4.939,1.526,6.107,3.807c0.316,0.447,0.606,0.917,0.835,1.426l0,0
		c-1.023-3.331-3.828-5.717-7.026-5.717c-0.219,0-0.433,0.008-0.647,0.032c-2.272,0.23-4.315,2.051-6.257,3.917
		c1.094-0.911,2.22-1.747,3.396-2.319c0.974-0.591,1.957-1.015,2.95-1.114C54.087,47.394,54.301,47.382,54.512,47.382z"/>
	
		<linearGradient id="SVGID_94_" gradientUnits="userSpaceOnUse" x1="-516.9717" y1="569.459" x2="-512.8365" y2="569.459" gradientTransform="matrix(4.527 -3.4311 3.4311 4.527 435.8042 -4296.2446)">
		<stop  offset="0" style="stop-color:#9FBF4C"/>
		<stop  offset="0.3463" style="stop-color:#9FBF4C"/>
		<stop  offset="1" style="stop-color:#5E8948"/>
	</linearGradient>
	<path fill="url(#SVGID_94_)" d="M54.512,47.382c2.589,0,4.939,1.526,6.107,3.807c0.316,0.447,0.606,0.917,0.835,1.426l0,0
		c-1.023-3.331-3.828-5.717-7.026-5.717c-0.219,0-0.433,0.008-0.647,0.032c-2.272,0.23-4.315,2.051-6.257,3.917
		c1.094-0.911,2.22-1.747,3.396-2.319c0.974-0.591,1.957-1.015,2.95-1.114C54.087,47.394,54.301,47.382,54.512,47.382z"/>
	
		<linearGradient id="SVGID_95_" gradientUnits="userSpaceOnUse" x1="-159.3799" y1="698.3604" x2="-155.2448" y2="698.3604" gradientTransform="matrix(-0.1728 1.1918 -1.1918 -0.1728 859.2302 369.4901)">
		<stop  offset="0" style="stop-color:#9DC44E"/>
		<stop  offset="1" style="stop-color:#C4D54B"/>
	</linearGradient>
	<path fill="url(#SVGID_95_)" d="M60.619,51.188c-1.168-2.28-3.519-3.807-6.107-3.807c-0.211,0-0.425,0.012-0.642,0.032
		c-0.993,0.099-1.977,0.522-2.95,1.114c0.793-0.388,1.609-0.659,2.457-0.742C56.311,47.496,58.999,48.906,60.619,51.188z"/>
	
		<linearGradient id="SVGID_96_" gradientUnits="userSpaceOnUse" x1="-378.9238" y1="612.3271" x2="-374.7878" y2="612.3271" gradientTransform="matrix(0.3382 4.007 -4.007 0.3382 2636.7925 1352.5181)">
		<stop  offset="0" style="stop-color:#9DC44E"/>
		<stop  offset="1" style="stop-color:#C4D54B"/>
	</linearGradient>
	<path fill="url(#SVGID_96_)" d="M60.619,51.188c-1.168-2.28-3.519-3.807-6.107-3.807c-0.211,0-0.425,0.012-0.642,0.032
		c-0.993,0.099-1.977,0.522-2.95,1.114c0.793-0.388,1.609-0.659,2.457-0.742C56.311,47.496,58.999,48.906,60.619,51.188z"/>
	
		<linearGradient id="SVGID_97_" gradientUnits="userSpaceOnUse" x1="-605.9302" y1="481.459" x2="-601.8007" y2="481.459" gradientTransform="matrix(0.4713 -2.2666 2.2666 0.4713 -751.4521 -1543.1459)">
		<stop  offset="0" style="stop-color:#DDE599"/>
		<stop  offset="0.0123" style="stop-color:#DDE599"/>
		<stop  offset="0.2699" style="stop-color:#C4D54B"/>
		<stop  offset="1" style="stop-color:#9DC44E"/>
	</linearGradient>
	<path fill="url(#SVGID_97_)" d="M60.619,51.188c-1.168-2.28-3.519-3.807-6.107-3.807c-0.211,0-0.425,0.012-0.642,0.032
		c-0.993,0.099-1.977,0.522-2.95,1.114c0.793-0.388,1.609-0.659,2.457-0.742C56.311,47.496,58.999,48.906,60.619,51.188z"/>
	
		<linearGradient id="SVGID_98_" gradientUnits="userSpaceOnUse" x1="-516.9717" y1="569.3545" x2="-512.8388" y2="569.3545" gradientTransform="matrix(4.527 -3.4311 3.4311 4.527 435.8042 -4296.2446)">
		<stop  offset="0" style="stop-color:#9FBF4C"/>
		<stop  offset="0.3463" style="stop-color:#9FBF4C"/>
		<stop  offset="1" style="stop-color:#5E8948"/>
	</linearGradient>
	<path fill="url(#SVGID_98_)" d="M60.619,51.188c-1.168-2.28-3.519-3.807-6.107-3.807c-0.211,0-0.425,0.012-0.642,0.032
		c-0.993,0.099-1.977,0.522-2.95,1.114c0.793-0.388,1.609-0.659,2.457-0.742C56.311,47.496,58.999,48.906,60.619,51.188z"/>
	
		<linearGradient id="SVGID_99_" gradientUnits="userSpaceOnUse" x1="-562.2617" y1="415.6289" x2="-558.1284" y2="415.6289" gradientTransform="matrix(2.334 0 0 -2.334 1324.6964 1017.0392)">
		<stop  offset="0" style="stop-color:#8B5443"/>
		<stop  offset="0.1893" style="stop-color:#824B3B"/>
		<stop  offset="0.4969" style="stop-color:#6A3324"/>
		<stop  offset="0.5395" style="stop-color:#662F20"/>
		<stop  offset="1" style="stop-color:#593029"/>
	</linearGradient>
	<path fill="url(#SVGID_99_)" d="M19.523,72.378c-0.449-11.024-0.889-22.048-1.336-33.068c2.41-0.298,3.828-1.692,3.832-5.193
		c-0.041-3.521,0.008,0,0.008,0c0.097-0.186-0.404-16.096-0.921-16.096c-0.003,0-0.003,0-0.008,0c-0.412,0-0.408,8.941-0.642,15.119
		c-0.336-0.097-0.667-0.182-1.014-0.247c-0.268-6.149-0.509-14.872-0.938-14.872c-0.412,0-0.517,8.698-0.763,14.667
		c-0.347-0.017-0.699-0.017-1.046,0c-0.254-5.969-0.367-14.667-0.783-14.667c-0.416,0-0.67,8.723-0.933,14.869
		c-0.348,0.068-0.686,0.153-1.022,0.25c-0.238-6.178-0.238-15.119-0.646-15.119c-0.477-0.088-0.929,12.462-0.92,16.096
		c-0.016,3.214,1.434,4.837,3.853,5.181c-0.445,11.028-0.889,22.051-1.336,33.081c-0.021,0.407,0.181,0.884,0.524,1.28
		c-0.173,0.645-0.351,1.291-0.529,1.938c-0.049,0.136,0.952,0.315,2.313,0.307c1.349,0.009,2.347-0.171,2.302-0.307
		c-0.173-0.639-0.351-1.288-0.529-1.93C19.345,73.27,19.547,72.794,19.523,72.378z M13.756,34.707
		c0.007-0.069,0.016-0.129,0.025-0.206c2.042,0.86,4.3,1.68,6.497,2.33c-1.095,0.227-2.354,0.371-3.485,0.42
		C13.894,37.186,13.691,35.619,13.756,34.707z M17.217,65.981c0.23,0,0.424,0.188,0.424,0.419c0,0.237-0.194,0.432-0.424,0.432
		c-0.242,0-0.432-0.194-0.432-0.432C16.785,66.17,16.975,65.981,17.217,65.981z M16.89,63.769c0-0.174,0.146-0.32,0.327-0.32
		c0.178,0,0.315,0.146,0.315,0.32c0,0.177-0.137,0.321-0.315,0.321C17.036,64.09,16.89,63.945,16.89,63.769z M17.217,68.456
		c0.375,0,0.674,0.308,0.674,0.687c0,0.378-0.299,0.682-0.674,0.682c-0.384,0-0.691-0.304-0.691-0.682
		C16.526,68.764,16.833,68.456,17.217,68.456z M17.217,74.8c-0.012,0-0.024,0-0.032,0c-0.504,0-0.868-0.108-0.856-0.187
		c0.182-1.016,0.359-2.039,0.529-3.052c0.023-0.077,0.178-0.142,0.359-0.142c0.178,0,0.327,0.064,0.343,0.142
		c0.182,1.013,0.355,2.036,0.525,3.052C18.109,74.698,17.733,74.804,17.217,74.8z"/>
	
		<linearGradient id="SVGID_100_" gradientUnits="userSpaceOnUse" x1="-582.292" y1="352.1641" x2="-578.1597" y2="352.1641" gradientTransform="matrix(1.5771 0 0 -1.5771 999.9607 601.4633)">
		<stop  offset="0" style="stop-color:#8B5443"/>
		<stop  offset="0.1893" style="stop-color:#824B3B"/>
		<stop  offset="0.4969" style="stop-color:#6A3324"/>
		<stop  offset="0.5395" style="stop-color:#662F20"/>
		<stop  offset="1" style="stop-color:#593029"/>
	</linearGradient>
	<path fill="url(#SVGID_100_)" d="M81.636,29.849c0.145,4.559-0.072,13.321,0.581,19.395c0.403,3.788,1.167,2.46,1.817,4.442
		c-0.255,6.235-0.501,12.461-0.76,18.692c-0.02,0.416,0.179,0.887,0.534,1.28c-0.18,0.645-0.355,1.295-0.534,1.938
		c-0.044,0.136,0.959,0.315,2.306,0.307c1.365,0.009,2.362-0.171,2.313-0.307c-0.177-0.643-0.355-1.293-0.529-1.938
		c0.349-0.394,0.55-0.864,0.529-1.28c-0.28-6.934-0.563-13.872-0.838-20.813c0.517-3.621,0.959-8.305,1.073-13.716
		c0.093-13.216-0.142-21.62-2.043-21.62c-0.259,0-0.55,0.157-0.876,0.48C83.574,18.328,81.497,21.251,81.636,29.849z M85.58,65.981
		c0.238,0,0.432,0.188,0.432,0.419c0,0.237-0.193,0.432-0.432,0.432c-0.229,0-0.424-0.194-0.424-0.432
		C85.156,66.17,85.352,65.981,85.58,65.981z M85.262,63.769c0-0.174,0.142-0.32,0.318-0.32c0.182,0,0.328,0.146,0.328,0.32
		c0,0.177-0.146,0.321-0.328,0.321C85.403,64.09,85.262,63.945,85.262,63.769z M85.58,68.456c0.38,0,0.687,0.308,0.687,0.687
		c0,0.378-0.307,0.682-0.687,0.682c-0.374,0-0.683-0.304-0.683-0.682C84.897,68.764,85.206,68.456,85.58,68.456z M85.58,71.42
		c0.182,0,0.332,0.064,0.356,0.142c0.169,1.013,0.351,2.036,0.529,3.052c0.015,0.085-0.369,0.19-0.886,0.187
		c-0.007,0-0.016,0-0.023,0c-0.506,0-0.867-0.108-0.848-0.187c0.173-1.016,0.348-2.039,0.528-3.052
		C85.253,71.484,85.403,71.42,85.58,71.42z"/>
</g>
</svg>
